<svg width="192" height="94" viewBox="0 0 192 94" fill="none" xmlns="http://www.w3.org/2000/svg">
<g clipPath="url(#clip0_1126_7704)">
<path d="M59.3254 34.25H48.959V59.0417L59.3254 34.25Z" fill="white"/>
<path d="M66.6191 34.25H76.9721V59.0417L66.6191 34.25Z" fill="white"/>
<path d="M62.9729 43.3867L69.571 59.0411H65.2421L63.2701 54.0571H58.4414L62.9729 43.3867Z" fill="white"/>
<path d="M93.885 50.0143L95.1074 53.5194C95.1479 53.6071 95.2087 53.6477 95.3168 53.6477H97.6669C97.7952 53.6477 97.8155 53.5869 97.7952 53.4586L92.9396 39.9721C92.9193 39.864 92.899 39.8438 92.791 39.8438H89.8735C89.7925 39.8438 89.7452 39.9045 89.7452 39.9923C89.7047 40.7014 89.6439 40.9175 89.5561 41.1269L85.2272 53.4383C85.2069 53.5869 85.2542 53.6477 85.3758 53.6477H87.4761C87.6044 53.6477 87.6652 53.6071 87.7124 53.4788L88.8673 50.0143H93.885ZM89.5359 47.7249C90.1707 45.807 91.0081 43.3488 91.3458 41.9441H91.366C91.7847 43.4163 92.7707 46.3338 93.2164 47.7249H89.5359Z" fill="white"/>
<path d="M104.038 53.8556C105.301 53.8556 106.645 53.626 108.009 53.0384C108.117 52.9979 108.137 52.9506 108.137 52.8493C108.097 52.4712 108.049 51.9241 108.049 51.5054V38.8091C108.049 38.728 108.049 38.6875 107.948 38.6875H105.659C105.571 38.6875 105.53 38.728 105.53 38.8361V43.138C105.172 43.0975 104.922 43.0772 104.625 43.0772C100.931 43.0772 98.6621 45.5152 98.6621 48.5609C98.6621 52.093 100.992 53.8556 104.038 53.8556ZM105.53 51.5054C105.152 51.627 104.733 51.6743 104.308 51.6743C102.633 51.6743 101.262 50.7288 101.262 48.4326C101.262 46.3999 102.674 45.1978 104.544 45.1978C104.922 45.1978 105.253 45.2383 105.53 45.3463V51.5054Z" fill="white"/>
<path d="M115.438 43.0781C112.284 43.0781 110.332 45.4958 110.332 48.4808C110.332 51.1484 111.885 53.8565 115.39 53.8565C118.355 53.8565 120.435 51.6752 120.435 48.4133C120.435 45.5364 118.672 43.0781 115.438 43.0781ZM115.309 45.1987C117.092 45.1987 117.849 46.7317 117.849 48.4808C117.849 50.6419 116.734 51.7157 115.438 51.7157C113.837 51.7157 112.892 50.3718 112.892 48.4336C112.892 46.4413 113.898 45.1987 115.309 45.1987Z" fill="white"/>
<path d="M122.805 38.6875C122.717 38.6875 122.656 38.728 122.656 38.8361V53.2073C122.656 53.2681 122.717 53.3761 122.805 53.3964C123.811 53.707 124.865 53.8556 125.952 53.8556C129.065 53.8556 132.091 51.9241 132.091 48.0342C132.091 45.218 130.159 43.0772 127.134 43.0772C126.438 43.0772 125.79 43.1853 125.223 43.3743L125.196 38.8563C125.196 38.7078 125.155 38.6875 125.006 38.6875H122.805ZM129.504 48.2908C129.504 50.6207 127.91 51.7148 126.188 51.7148C125.83 51.7148 125.513 51.6945 125.223 51.6067V45.4746C125.553 45.3463 125.952 45.2383 126.688 45.2383C128.349 45.2383 129.504 46.2918 129.504 48.2908Z" fill="white"/>
<path d="M140.634 49.0481C141.661 49.0481 142.505 49.0279 142.795 48.9603C142.903 48.9401 142.944 48.8995 142.964 48.8117C143.025 48.5821 143.052 48.1026 143.052 47.5151C143.052 45.5161 141.85 43.0781 138.743 43.0781C135.569 43.0781 133.807 45.6647 133.807 48.5821C133.807 51.1687 135.171 53.8565 138.993 53.8565C140.425 53.8565 141.35 53.6269 142.147 53.2487C142.228 53.2082 142.269 53.1407 142.269 53.0191V51.27C142.269 51.1687 142.208 51.1484 142.147 51.1889C141.35 51.5266 140.486 51.6954 139.54 51.6954C137.399 51.6954 136.427 50.5136 136.366 49.0481H140.634ZM136.366 47.2382C136.535 46.2117 137.183 45.0974 138.635 45.0974C140.236 45.0974 140.655 46.4413 140.655 47.0491C140.655 47.0694 140.655 47.1572 140.655 47.2179C140.567 47.2382 140.297 47.2382 139.5 47.2382H136.366Z" fill="white"/>
</g>
<defs>
<clipPath id="clip0_1126_7704">
<rect width="94.2083" height="34" fill="white" transform="translate(48.959 30)"/>
</clipPath>
</defs>
</svg>
