<svg width="129" height="56" viewBox="0 0 129 56" fill="none" xmlns="http://www.w3.org/2000/svg">
<g clipPath="url(#clip0_1_45255)">
<path fillRule="evenodd" clipRule="evenodd" d="M79.238 44.0643C71.8332 49.5223 61.1002 52.4343 51.8594 52.4343C38.9023 52.4343 27.2375 47.642 18.4127 39.6713C17.7193 39.0445 18.3405 38.1903 19.1726 38.6785C28.6963 44.2196 40.472 47.5532 52.6359 47.5532C60.8396 47.5532 69.8641 45.8559 78.162 42.3338C79.4155 41.8013 80.4639 43.1547 79.238 44.0643Z" fill="#1E4C83"/>
<path fillRule="evenodd" clipRule="evenodd" d="M82.3166 40.5422C81.3736 39.333 76.0599 39.9709 73.6748 40.2538C72.9482 40.3425 72.8372 39.7102 73.4917 39.2554C77.7239 36.2768 84.6684 37.1365 85.4782 38.1349C86.288 39.1389 85.2674 46.1 81.2904 49.4225C80.6803 49.9328 80.0979 49.661 80.3697 48.9843C81.2627 46.7545 83.265 41.7569 82.3166 40.5422Z" fill="#1E4C83"/>
<path fillRule="evenodd" clipRule="evenodd" d="M73.8391 18.2295V15.3341C73.8391 14.8959 74.172 14.6019 74.5713 14.6019H87.534C87.95 14.6019 88.2828 14.9014 88.2828 15.3341V17.8135C88.2773 18.2295 87.9278 18.773 87.3066 19.6328L80.5895 29.2231C83.0855 29.1621 85.7202 29.5337 87.9833 30.8094C88.4936 31.0979 88.6323 31.5194 88.6711 31.9354V35.0249C88.6711 35.4465 88.2052 35.9401 87.717 35.685C83.729 33.5939 78.4318 33.3665 74.0222 35.7072C73.5729 35.9512 73.1014 35.4631 73.1014 35.0416V32.1074C73.1014 31.6359 73.107 30.8316 73.5784 30.1161L81.3605 18.9561H74.588C74.1719 18.9561 73.8391 18.6621 73.8391 18.2295Z" fill="#1E4C83"/>
<path fillRule="evenodd" clipRule="evenodd" d="M26.5533 36.2952H22.6095C22.2324 36.2674 21.9328 35.9846 21.9051 35.624V15.384C21.9051 14.9791 22.2435 14.6574 22.665 14.6574H26.3425C26.7252 14.674 27.0303 14.968 27.058 15.3341V17.9799H27.1301C28.0897 15.4229 29.8924 14.2303 32.3219 14.2303C34.7902 14.2303 36.3321 15.4229 37.4415 17.9799C38.3955 15.4229 40.5643 14.2303 42.8884 14.2303C44.5413 14.2303 46.3495 14.9126 47.4533 16.4435C48.7013 18.1463 48.4462 20.6201 48.4462 22.7889L48.4407 35.563C48.4407 35.9679 48.1023 36.2952 47.6808 36.2952H43.7426C43.3488 36.2674 43.0326 35.9513 43.0326 35.563V24.8356C43.0326 23.9815 43.1102 21.8515 42.9217 21.0417C42.6277 19.6827 41.7458 19.3 40.6031 19.3C39.6491 19.3 38.6507 19.9379 38.2458 20.9585C37.8409 21.9791 37.8797 23.6875 37.8797 24.8356V35.563C37.8797 35.9679 37.5413 36.2952 37.1198 36.2952H33.1816C32.7822 36.2674 32.4716 35.9513 32.4716 35.563L32.4661 24.8356C32.4661 22.5781 32.8377 19.2556 30.0366 19.2556C27.2022 19.2556 27.3132 22.4949 27.3132 24.8356V35.563C27.3132 35.9679 26.9748 36.2952 26.5533 36.2952Z" fill="#1E4C83"/>
<path fillRule="evenodd" clipRule="evenodd" d="M99.4427 14.2303C105.294 14.2303 108.462 19.2556 108.462 25.6455C108.462 31.819 104.962 36.7167 99.4427 36.7167C93.6963 36.7167 90.5679 31.6914 90.5679 25.4291C90.5679 19.1281 93.7351 14.2303 99.4427 14.2303ZM99.476 18.3626C96.5695 18.3626 96.3864 22.323 96.3864 24.7913C96.3864 27.2651 96.3476 32.5456 99.4427 32.5456C102.499 32.5456 102.643 28.2857 102.643 25.6898C102.643 23.9815 102.571 21.9403 102.055 20.3206C101.611 18.9117 100.73 18.3626 99.476 18.3626Z" fill="#1E4C83"/>
<path fillRule="evenodd" clipRule="evenodd" d="M116.05 36.2952H112.123C111.729 36.2674 111.413 35.9513 111.413 35.563L111.407 15.3175C111.44 14.9458 111.768 14.6574 112.167 14.6574H115.822C116.166 14.674 116.449 14.907 116.527 15.2232V18.3182H116.599C117.703 15.5504 119.25 14.2303 121.974 14.2303C123.743 14.2303 125.468 14.8682 126.577 16.6154C127.609 18.235 127.609 20.9585 127.609 22.9165V35.6573C127.565 36.0123 127.237 36.2952 126.849 36.2952H122.894C122.534 36.2674 122.234 36.0012 122.195 35.6573V24.6637C122.195 22.4506 122.451 19.2113 119.727 19.2113C118.768 19.2113 117.886 19.8547 117.448 20.8309C116.893 22.0678 116.821 23.2992 116.821 24.6637V35.563C116.815 35.9679 116.471 36.2952 116.05 36.2952Z" fill="#1E4C83"/>
<path fillRule="evenodd" clipRule="evenodd" d="M63.5056 26.6272C63.5056 28.1636 63.5444 29.4449 62.7679 30.8094C62.1411 31.9188 61.1427 32.601 60.0389 32.601C58.5247 32.601 57.6372 31.4473 57.6372 29.7445C57.6372 26.3831 60.6491 25.773 63.5056 25.773V26.6272ZM67.4826 36.2397C67.2219 36.4726 66.8447 36.4893 66.5508 36.334C65.2417 35.2468 65.0032 34.7421 64.2877 33.7048C62.1245 35.9124 60.588 36.5725 57.7869 36.5725C54.4645 36.5725 51.8852 34.5257 51.8852 30.4267C51.8852 27.2263 53.6158 25.0464 56.0896 23.9814C58.2307 23.0385 61.2204 22.8721 63.5056 22.6114V22.1011C63.5056 21.1637 63.5777 20.0543 63.0231 19.2445C62.546 18.5179 61.6253 18.2184 60.8099 18.2184C59.3067 18.2184 57.97 18.9894 57.6427 20.5868C57.5762 20.9418 57.3155 21.2913 56.9549 21.3079L53.1332 20.8974C52.8115 20.8253 52.451 20.5646 52.5453 20.071C53.4217 15.4339 57.615 14.0361 61.3646 14.0361C63.2837 14.0361 65.7909 14.5464 67.3051 15.9997C69.2243 17.7913 69.0413 20.1819 69.0413 22.7833V28.9291C69.0413 30.7762 69.8067 31.586 70.5278 32.5844C70.7774 32.9394 70.8328 33.3665 70.5111 33.6327C69.7068 34.3039 68.2758 35.5519 67.4882 36.2508L67.4826 36.2397Z" fill="#1E4C83"/>
<path fillRule="evenodd" clipRule="evenodd" d="M11.8045 26.6272C11.8045 28.1636 11.8433 29.4449 11.0668 30.8094C10.44 31.9188 9.44711 32.601 8.33776 32.601C6.82351 32.601 5.94158 31.4473 5.94158 29.7445C5.94158 26.3831 8.95345 25.773 11.8045 25.773V26.6272ZM15.7815 36.2397C15.5208 36.4726 15.1436 36.4893 14.8496 36.334C13.5406 35.2468 13.3076 34.7421 12.5866 33.7048C10.4233 35.9124 8.89244 36.5725 6.08579 36.5725C2.76885 36.5725 0.184082 34.5257 0.184082 30.4267C0.184082 27.2262 1.92021 25.0464 4.3885 23.9814C6.52953 23.0385 9.51922 22.8721 11.8045 22.6114V22.1011C11.8045 21.1637 11.8766 20.0543 11.3274 19.2445C10.8449 18.5179 9.92413 18.2184 9.1143 18.2184C7.61115 18.2184 6.26884 18.9894 5.94158 20.5868C5.87502 20.9418 5.61432 21.2912 5.25933 21.3079L1.43209 20.8974C1.11038 20.8253 0.755393 20.5646 0.844141 20.071C1.72607 15.4339 5.91384 14.0361 9.66343 14.0361C11.5826 14.0361 14.0897 14.5464 15.604 15.9997C17.5231 17.7913 17.3401 20.1819 17.3401 22.7833V28.9291C17.3401 30.7761 18.1055 31.586 18.8266 32.5844C19.0818 32.9394 19.1372 33.3665 18.8155 33.6327C18.0112 34.3039 16.5802 35.5519 15.7926 36.2508L15.7815 36.2397Z" fill="#1E4C83"/>
</g>
<defs>
<clipPath id="clip0_1_45255">
<rect width="128" height="55.8546" fill="white" transform="translate(0.1875 0.0722656)"/>
</clipPath>
</defs>
</svg>
