<svg width="193" height="94" viewBox="0 0 193 94" fill="none" xmlns="http://www.w3.org/2000/svg">
<g clipPath="url(#clip0_74_678)">
<path fillRule="evenodd" clipRule="evenodd" d="M105.474 56.7787C100.966 60.1011 94.433 61.8738 88.8079 61.8738C80.9206 61.8738 73.8199 58.9565 68.4481 54.1046C68.026 53.7231 68.4042 53.2031 68.9106 53.5002C74.7079 56.8733 81.8761 58.9025 89.2806 58.9025C94.2743 58.9025 99.7677 57.8693 104.819 55.7253C105.582 55.4012 106.22 56.225 105.474 56.7787Z" fill="white"/>
<path fillRule="evenodd" clipRule="evenodd" d="M107.348 54.6347C106.774 53.8987 103.539 54.287 102.087 54.4592C101.645 54.5132 101.578 54.1283 101.976 53.8514C104.552 52.0383 108.779 52.5616 109.272 53.1694C109.765 53.7805 109.144 58.0179 106.723 60.0404C106.352 60.351 105.997 60.1856 106.163 59.7737C106.706 58.4163 107.925 55.3742 107.348 54.6347Z" fill="white"/>
<path fillRule="evenodd" clipRule="evenodd" d="M102.188 41.0526V39.2901C102.188 39.0233 102.39 38.8444 102.633 38.8444H110.524C110.777 38.8444 110.98 39.0267 110.98 39.2901V40.7993C110.976 41.0526 110.764 41.3835 110.386 41.9068L106.297 47.7446C107.816 47.7075 109.42 47.9337 110.798 48.7103C111.108 48.8859 111.193 49.1425 111.216 49.3957V51.2764C111.216 51.533 110.933 51.8335 110.635 51.6782C108.208 50.4053 104.983 50.2668 102.299 51.6917C102.026 51.8403 101.739 51.5431 101.739 51.2865V49.5004C101.739 49.2134 101.742 48.7238 102.029 48.2883L106.766 41.4949H102.643C102.39 41.4949 102.188 41.3159 102.188 41.0526Z" fill="white"/>
<path fillRule="evenodd" clipRule="evenodd" d="M73.4036 52.0496H71.003C70.7734 52.0327 70.591 51.8605 70.5742 51.6411V39.3205C70.5742 39.074 70.7801 38.8782 71.0367 38.8782H73.2753C73.5083 38.8883 73.694 39.0673 73.7109 39.2901V40.9007H73.7547C74.3389 39.3441 75.4362 38.6182 76.9151 38.6182C78.4176 38.6182 79.3562 39.3441 80.0315 40.9007C80.6123 39.3441 81.9324 38.6182 83.3472 38.6182C84.3533 38.6182 85.4541 39.0335 86.126 39.9654C86.8857 41.002 86.7303 42.5078 86.7303 43.828L86.727 51.6039C86.727 51.8504 86.521 52.0496 86.2644 52.0496H83.8671C83.6274 52.0327 83.435 51.8403 83.435 51.6039V45.0739C83.435 44.554 83.4822 43.2574 83.3674 42.7644C83.1885 41.9372 82.6516 41.7042 81.9561 41.7042C81.3753 41.7042 80.7676 42.0925 80.5211 42.7138C80.2746 43.3351 80.2983 44.375 80.2983 45.0739V51.6039C80.2983 51.8504 80.0923 52.0496 79.8357 52.0496H77.4384C77.1953 52.0327 77.0062 51.8403 77.0062 51.6039L77.0029 45.0739C77.0029 43.6997 77.2291 41.6772 75.524 41.6772C73.7986 41.6772 73.8662 43.6491 73.8662 45.0739V51.6039C73.8662 51.8504 73.6602 52.0496 73.4036 52.0496Z" fill="white"/>
<path fillRule="evenodd" clipRule="evenodd" d="M117.773 38.6182C121.335 38.6182 123.263 41.6772 123.263 45.5669C123.263 49.3248 121.133 52.3062 117.773 52.3062C114.275 52.3062 112.371 49.2472 112.371 45.4352C112.371 41.5996 114.299 38.6182 117.773 38.6182ZM117.793 41.1336C116.024 41.1336 115.913 43.5444 115.913 45.0469C115.913 46.5528 115.889 49.7671 117.773 49.7671C119.634 49.7671 119.721 47.1741 119.721 45.5939C119.721 44.554 119.677 43.3114 119.363 42.3255C119.093 41.4679 118.556 41.1336 117.793 41.1336Z" fill="white"/>
<path fillRule="evenodd" clipRule="evenodd" d="M127.882 52.0496H125.492C125.252 52.0327 125.06 51.8403 125.06 51.6039L125.056 39.28C125.076 39.0538 125.276 38.8782 125.519 38.8782H127.744C127.953 38.8883 128.125 39.0301 128.173 39.2226V41.1066H128.216C128.888 39.4218 129.83 38.6182 131.488 38.6182C132.565 38.6182 133.615 39.0065 134.291 40.0701C134.919 41.056 134.919 42.7138 134.919 43.9057V51.6613C134.892 51.8774 134.692 52.0496 134.456 52.0496H132.049C131.829 52.0327 131.647 51.8707 131.623 51.6613V44.9693C131.623 43.6221 131.779 41.6502 130.121 41.6502C129.537 41.6502 129 42.0419 128.733 42.6361C128.395 43.3891 128.352 44.1387 128.352 44.9693V51.6039C128.348 51.8504 128.139 52.0496 127.882 52.0496Z" fill="white"/>
<path fillRule="evenodd" clipRule="evenodd" d="M95.8974 46.1645C95.8974 47.0998 95.921 47.8797 95.4483 48.7103C95.0668 49.3856 94.459 49.8009 93.7871 49.8009C92.8653 49.8009 92.3251 49.0986 92.3251 48.062C92.3251 46.0159 94.1585 45.6445 95.8974 45.6445V46.1645ZM98.3183 52.0158C98.1596 52.1576 97.93 52.1678 97.751 52.0732C96.9542 51.4114 96.809 51.1042 96.3734 50.4728C95.0566 51.8166 94.1214 52.2184 92.4163 52.2184C90.3938 52.2184 88.8238 50.9725 88.8238 48.4773C88.8238 46.5291 89.8772 45.2022 91.3831 44.5539C92.6864 43.9799 94.5063 43.8786 95.8974 43.72V43.4093C95.8974 42.8387 95.9413 42.1634 95.6036 41.6705C95.3133 41.2282 94.7528 41.0458 94.2564 41.0458C93.3414 41.0458 92.5277 41.5151 92.3285 42.4876C92.288 42.7036 92.1293 42.9164 91.9098 42.9265L89.5835 42.6766C89.3876 42.6327 89.1682 42.4741 89.2256 42.1736C89.759 39.3509 92.3116 38.5 94.5941 38.5C95.7623 38.5 97.2885 38.8106 98.2102 39.6953C99.3785 40.7858 99.267 42.2411 99.267 43.8246V47.5657C99.267 48.6901 99.733 49.183 100.172 49.7908C100.324 50.0069 100.358 50.2668 100.162 50.4289C99.6722 50.8375 98.8011 51.5972 98.3216 52.0226L98.3183 52.0158Z" fill="white"/>
<path fillRule="evenodd" clipRule="evenodd" d="M64.4257 46.1645C64.4257 47.0997 64.4493 47.8797 63.9766 48.7103C63.5951 49.3856 62.9907 49.8009 62.3154 49.8009C61.3936 49.8009 60.8568 49.0986 60.8568 48.062C60.8568 46.0159 62.6902 45.6445 64.4257 45.6445V46.1645ZM66.8465 52.0158C66.6879 52.1576 66.4583 52.1678 66.2793 52.0732C65.4825 51.4114 65.3407 51.1042 64.9017 50.4728C63.5849 51.8166 62.653 52.2184 60.9446 52.2184C58.9255 52.2184 57.3521 50.9725 57.3521 48.4773C57.3521 46.5291 58.4089 45.2022 59.9114 44.5539C61.2147 43.9799 63.0346 43.8786 64.4257 43.72V43.4093C64.4257 42.8387 64.4695 42.1634 64.1353 41.6705C63.8415 41.2281 63.281 41.0458 62.7881 41.0458C61.8731 41.0458 61.056 41.5151 60.8568 42.4876C60.8163 42.7036 60.6576 42.9164 60.4415 42.9265L58.1117 42.6766C57.9159 42.6327 57.6998 42.474 57.7538 42.1735C58.2907 39.3509 60.8399 38.5 63.1224 38.5C64.2906 38.5 65.8167 38.8106 66.7385 39.6953C67.9067 40.7858 67.7953 42.2411 67.7953 43.8246V47.5657C67.7953 48.69 68.2613 49.183 68.7002 49.7908C68.8555 50.0068 68.8893 50.2668 68.6934 50.4289C68.2039 50.8374 67.3328 51.5971 66.8533 52.0226L66.8465 52.0158Z" fill="white"/>
</g>
<defs>
<clipPath id="clip0_74_678">
<rect width="77.9166" height="34" fill="white" transform="translate(57.354 30)"/>
</clipPath>
</defs>
</svg>
