<svg width="7" height="8" viewBox="0 0 7 8" fill="none" xmlns="http://www.w3.org/2000/svg">
<path fillRule="evenodd" clipRule="evenodd" d="M3.65893 0.628906C1.81368 0.628906 0.318359 2.13823 0.318359 4.00075C0.318359 5.86328 1.81368 7.3726 3.65893 7.3726C5.50417 7.3726 6.99949 5.86328 6.99949 4.00075C6.99949 2.13823 5.50417 0.628906 3.65893 0.628906Z" fill="url(#paint0_linear_820_3735)"/>
<path fillRule="evenodd" clipRule="evenodd" d="M3.6599 1.28125C2.1711 1.28125 0.964844 2.4988 0.964844 4.00154C0.964844 5.50429 2.1711 3.12951 3.6599 3.12951C5.1487 3.12951 6.35495 5.50429 6.35495 4.00154C6.35495 2.4988 5.1487 1.28125 3.6599 1.28125Z" fill="url(#paint1_linear_820_3735)"/>
<defs>
<linearGradient id="paint0_linear_820_3735" x1="6.02036" y1="1.61721" x2="1.25237" y2="6.34095" gradientUnits="userSpaceOnUse">
<stop stopColor="#FBC27A"/>
<stop offset="1" stopColor="#F89A21"/>
</linearGradient>
<linearGradient id="paint1_linear_820_3735" x1="3.6599" y1="-2.95934" x2="3.6599" y2="4.95913" gradientUnits="userSpaceOnUse">
<stop stopColor="#FEEBD3"/>
<stop offset="1" stopColor="white" stop-opacity="0"/>
</linearGradient>
</defs>
</svg>
