<svg width="24" height="25" viewBox="0 0 24 25" fill="none" xmlns="http://www.w3.org/2000/svg">
<path d="M22 22.5L2 22.5" stroke="#1C274C" strokeWidth="1.5" strokeLinecap="round"/>
<path d="M17 22.5V6.5C17 4.61438 17 3.67157 16.4142 3.08579C15.8284 2.5 14.8856 2.5 13 2.5H11C9.11438 2.5 8.17157 2.5 7.58579 3.08579C7 3.67157 7 4.61438 7 6.5V22.5" stroke="#1C274C" strokeWidth="1.5"/>
<path d="M20.25 12C20.25 12.4142 20.5858 12.75 21 12.75C21.4142 12.75 21.75 12.4142 21.75 12H20.25ZM20.1111 8.83706L19.6945 9.46066L19.6945 9.46066L20.1111 8.83706ZM20.6629 9.38886L20.0393 9.80554L20.0393 9.80554L20.6629 9.38886ZM21.75 16C21.75 15.5858 21.4142 15.25 21 15.25C20.5858 15.25 20.25 15.5858 20.25 16H21.75ZM17.5 9.25C18.2178 9.25 18.6998 9.25091 19.0672 9.28828C19.422 9.32438 19.586 9.3882 19.6945 9.46066L20.5278 8.21346C20.1318 7.94886 19.6925 7.84415 19.219 7.79598C18.758 7.74909 18.1866 7.75 17.5 7.75V9.25ZM21.75 12C21.75 11.3134 21.7509 10.742 21.704 10.281C21.6559 9.80755 21.5511 9.36818 21.2865 8.97218L20.0393 9.80554C20.1118 9.91399 20.1756 10.078 20.2117 10.4328C20.2491 10.8002 20.25 11.2822 20.25 12H21.75ZM19.6945 9.46066C19.831 9.55186 19.9481 9.66905 20.0393 9.80554L21.2865 8.97218C21.0859 8.67191 20.8281 8.41409 20.5278 8.21346L19.6945 9.46066ZM20.25 16V22.5H21.75V16H20.25Z" fill="#1C274C"/>
<path d="M3.88886 8.83706L4.30554 9.46066L4.30554 9.46066L3.88886 8.83706ZM3.33706 9.38886L3.96066 9.80554L3.96066 9.80554L3.33706 9.38886ZM3.75 20.5C3.75 20.0858 3.41421 19.75 3 19.75C2.58579 19.75 2.25 20.0858 2.25 20.5H3.75ZM2.25 16.5C2.25 16.9142 2.58579 17.25 3 17.25C3.41421 17.25 3.75 16.9142 3.75 16.5H2.25ZM6.5 7.75C5.81338 7.75 5.24196 7.74909 4.78102 7.79598C4.30755 7.84415 3.86818 7.94886 3.47218 8.21346L4.30554 9.46066C4.41399 9.3882 4.57796 9.32438 4.93283 9.28828C5.30023 9.25091 5.78216 9.25 6.5 9.25V7.75ZM3.75 12C3.75 11.2822 3.75091 10.8002 3.78828 10.4328C3.82438 10.078 3.8882 9.91399 3.96066 9.80554L2.71346 8.97218C2.44886 9.36818 2.34415 9.80755 2.29598 10.281C2.24909 10.742 2.25 11.3134 2.25 12H3.75ZM3.47218 8.21346C3.17191 8.41409 2.91409 8.67191 2.71346 8.97218L3.96066 9.80554C4.05186 9.66905 4.16905 9.55186 4.30554 9.46066L3.47218 8.21346ZM2.25 20.5V22.5H3.75V20.5H2.25ZM2.25 12V16.5H3.75V12H2.25Z" fill="#1C274C"/>
<path d="M12 22.5V19.5" stroke="#1C274C" strokeWidth="1.5" strokeLinecap="round"/>
<path d="M10 5.5H14" stroke="#1C274C" strokeWidth="1.5" strokeLinecap="round"/>
<path d="M10 14.5H10.5M14 14.5H12.5" stroke="#1C274C" strokeWidth="1.5" strokeLinecap="round"/>
<path d="M14 8.5H13.5M10 8.5H11.5" stroke="#1C274C" strokeWidth="1.5" strokeLinecap="round"/>
<path d="M10 11.5H14" stroke="#1C274C" strokeWidth="1.5" strokeLinecap="round"/>
</svg>
