<svg width="25" height="25" viewBox="0 0 25 25" fill="none" xmlns="http://www.w3.org/2000/svg">
<path fillRule="evenodd" clipRule="evenodd" d="M12.3335 3.25C7.22486 3.25 3.0835 7.39137 3.0835 12.5C3.0835 17.6086 7.22486 21.75 12.3335 21.75C17.4421 21.75 21.5835 17.6086 21.5835 12.5C21.5835 7.39137 17.4421 3.25 12.3335 3.25ZM1.5835 12.5C1.5835 6.56294 6.39643 1.75 12.3335 1.75C18.2706 1.75 23.0835 6.56294 23.0835 12.5C23.0835 18.4371 18.2706 23.25 12.3335 23.25C6.39643 23.25 1.5835 18.4371 1.5835 12.5ZM12.3335 5.75C12.7477 5.75 13.0835 6.08579 13.0835 6.5V6.81673C14.7139 7.10867 16.0835 8.33361 16.0835 10C16.0835 10.4142 15.7477 10.75 15.3335 10.75C14.9193 10.75 14.5835 10.4142 14.5835 10C14.5835 9.15573 13.71 8.25 12.3335 8.25C10.957 8.25 10.0835 9.15573 10.0835 10C10.0835 10.8443 10.957 11.75 12.3335 11.75C14.2707 11.75 16.0835 13.0828 16.0835 15C16.0835 16.6664 14.7139 17.8913 13.0835 18.1833V18.5C13.0835 18.9142 12.7477 19.25 12.3335 19.25C11.9193 19.25 11.5835 18.9142 11.5835 18.5V18.1833C9.95306 17.8913 8.5835 16.6664 8.5835 15C8.5835 14.5858 8.91928 14.25 9.3335 14.25C9.74771 14.25 10.0835 14.5858 10.0835 15C10.0835 15.8443 10.957 16.75 12.3335 16.75C13.71 16.75 14.5835 15.8443 14.5835 15C14.5835 14.1557 13.71 13.25 12.3335 13.25C10.3963 13.25 8.5835 11.9172 8.5835 10C8.5835 8.33361 9.95307 7.10867 11.5835 6.81673V6.5C11.5835 6.08579 11.9193 5.75 12.3335 5.75Z" fill="#141522"/>
</svg>
