<svg width="25" height="25" viewBox="0 0 25 25" fill="none" xmlns="http://www.w3.org/2000/svg">
<path d="M3.94189 15.7957C3.09196 14.6915 2.66699 14.1394 2.66699 12.5C2.66699 10.8606 3.09196 10.3085 3.94188 9.20433C5.63896 6.99956 8.48511 4.5 12.667 4.5C16.8489 4.5 19.695 6.99956 21.3921 9.20433C22.242 10.3085 22.667 10.8606 22.667 12.5C22.667 14.1394 22.242 14.6915 21.3921 15.7957C19.695 18.0004 16.8489 20.5 12.667 20.5C8.48511 20.5 5.63896 18.0004 3.94189 15.7957Z" stroke="#6C7278" strokeWidth="1.5"/>
<path d="M15.667 12.5C15.667 14.1569 14.3238 15.5 12.667 15.5C11.0101 15.5 9.66699 14.1569 9.66699 12.5C9.66699 10.8431 11.0101 9.5 12.667 9.5C14.3238 9.5 15.667 10.8431 15.667 12.5Z" stroke="#6C7278" strokeWidth="1.5"/>
</svg>
