<svg width="24" height="24" viewBox="0 0 24 24" fill="none" xmlns="http://www.w3.org/2000/svg">
<rect width="24" height="24" rx="12" fill="#6173E5"/>
<path d="M11.994 5.33398C8.31398 5.33398 5.33398 8.32065 5.33398 12.0007C5.33398 15.6807 8.31398 18.6673 11.994 18.6673C15.6807 18.6673 18.6673 15.6807 18.6673 12.0007C18.6673 8.32065 15.6807 5.33398 11.994 5.33398ZM16.614 9.33398H14.6473C14.434 8.50065 14.1273 7.70065 13.7273 6.96065C14.954 7.38065 15.974 8.23398 16.614 9.33398ZM12.0007 6.69398C12.554 7.49398 12.9873 8.38065 13.274 9.33398H10.7273C11.014 8.38065 11.4473 7.49398 12.0007 6.69398ZM6.84065 13.334C6.73398 12.9073 6.66732 12.4607 6.66732 12.0007C6.66732 11.5407 6.73398 11.094 6.84065 10.6673H9.09398C9.04065 11.1073 9.00065 11.5473 9.00065 12.0007C9.00065 12.454 9.04065 12.894 9.09398 13.334H6.84065ZM7.38732 14.6673H9.35398C9.56732 15.5007 9.87398 16.3007 10.274 17.0407C9.04732 16.6207 8.02732 15.774 7.38732 14.6673ZM9.35398 9.33398H7.38732C8.02732 8.22732 9.04732 7.38065 10.274 6.96065C9.87398 7.70065 9.56732 8.50065 9.35398 9.33398ZM12.0007 17.3073C11.4473 16.5073 11.014 15.6207 10.7273 14.6673H13.274C12.9873 15.6207 12.554 16.5073 12.0007 17.3073ZM13.5607 13.334H10.4407C10.3807 12.894 10.334 12.454 10.334 12.0007C10.334 11.5473 10.3807 11.1007 10.4407 10.6673H13.5607C13.6207 11.1007 13.6673 11.5473 13.6673 12.0007C13.6673 12.454 13.6207 12.894 13.5607 13.334ZM13.7273 17.0407C14.1273 16.3007 14.434 15.5007 14.6473 14.6673H16.614C15.974 15.7673 14.954 16.6207 13.7273 17.0407ZM14.9073 13.334C14.9607 12.894 15.0007 12.454 15.0007 12.0007C15.0007 11.5473 14.9607 11.1073 14.9073 10.6673H17.1607C17.2673 11.094 17.334 11.5407 17.334 12.0007C17.334 12.4607 17.2673 12.9073 17.1607 13.334H14.9073Z" fill="white"/>
</svg>
