<svg width="1528" height="307" viewBox="0 0 1528 307" fill="none" xmlns="http://www.w3.org/2000/svg">
<path opacity="0.0571429" d="M-75.9581 532.876C-97.8719 338.131 -56.2058 -93.9806 285.769 -264.469C713.238 -477.579 822.625 -743.559 785.347 -1019.63" stroke="#6195D2"/>
<path opacity="0.114286" d="M-77.2725 523.012C-82.3135 327.593 -3.57666 -98.0792 351.699 -237.42C795.793 -411.597 927.658 -666.254 914.324 -943.828" stroke="#6195D2"/>
<path opacity="0.171429" d="M-79.5071 506.195C-67.7231 311.558 47.2826 -104.512 413.034 -211.69C870.223 -345.663 1023.43 -587.11 1034.02 -864.118" stroke="#6195D2"/>
<path opacity="0.228571" d="M-81.4183 501.022C-52.9821 308.608 97.222 -94.7846 470.549 -169.04C937.207 -261.859 1110.45 -488.32 1144.77 -762.71" stroke="#6195D2"/>
<path opacity="0.285714" d="M-83.7667 495.594C-38.9741 306.821 145.098 -80.9339 523.048 -121.766C995.486 -172.806 1187.33 -382.631 1245 -652.379" stroke="#6195D2"/>
<path opacity="0.342857" d="M-86.5244 489.877C-25.7915 306.128 190.572 -63.1633 570.164 -70.3359C1044.65 -79.3015 1253.52 -270.977 1334 -534.106" stroke="#6195D2"/>
<path opacity="0.4" d="M-96.319 478.558C-20.1779 301.173 226.666 -46.9839 604.912 -20.526C1077.72 12.5464 1301.91 -159.614 1404.49 -414.205" stroke="#6195D2"/>
<path opacity="0.457143" d="M-94.5441 465.5C-3.63896 295.763 271.654 -28.764 645.585 31.0313C1113 105.776 1350.7 -45.6627 1474.51 -289.87" stroke="#6195D2"/>
<path opacity="0.514286" d="M-98.3644 458.708C6.55414 297.839 308.063 -0.753926 674.752 91.8245C1133.11 207.548 1382.43 77.8732 1526.43 -154.192" stroke="#6195D2"/>
<path opacity="0.571429" d="M-102.47 451.497C15.6116 300.646 340.919 30.0804 697.501 154.631C1143.23 310.32 1402.18 203.277 1565.21 -14.9862" stroke="#6195D2"/>
<path opacity="0.628571" d="M-112.724 491.723C6.09284 342.073 332.459 74.7084 687.393 202.452C1131.06 362.132 1390.13 257.556 1554.25 40.9587" stroke="#6195D2"/>
<path opacity="0.685714" d="M-107.855 480.298C27.3864 351.4 379.091 123.823 703.975 244.706C1110.08 395.809 1374.44 309.921 1562.61 123.172" stroke="#6195D2"/>
<path opacity="0.742857" d="M-113.644 461.829C34.931 354.327 407.139 167.815 707.373 281.787C1082.66 424.252 1351.23 357.696 1558.92 201.719" stroke="#6195D2"/>
<path opacity="0.8" d="M-145.27 456.342C13.9434 371.611 402.185 228.037 681.443 331.589C1030.51 461.028 1301.92 413.863 1525.22 290.69" stroke="#6195D2"/>
</svg>
