<svg width="1728" height="743" viewBox="0 0 1728 743" fill="none" xmlns="http://www.w3.org/2000/svg">
<path opacity="0.0571429" d="M-332.678 1336.29C-363.467 1062.67 -304.926 455.548 175.552 216.01C776.149 -83.4116 929.839 -457.115 877.463 -844.999" stroke="#6B8494"/>
<path opacity="0.114286" d="M-334.527 1322.43C-341.61 1047.86 -230.984 449.79 268.181 254.014C892.137 9.29489 1077.41 -348.5 1058.67 -738.495" stroke="#6B8494"/>
<path opacity="0.171429" d="M-337.664 1298.8C-321.107 1025.33 -159.523 440.752 354.36 290.166C996.714 101.932 1211.97 -237.303 1226.85 -626.502" stroke="#6B8494"/>
<path opacity="0.228571" d="M-340.349 1291.53C-300.396 1021.19 -89.3581 454.42 435.169 350.091C1090.83 219.68 1334.24 -98.5008 1382.46 -484.021" stroke="#6B8494"/>
<path opacity="0.285714" d="M-343.648 1283.91C-280.714 1018.68 -22.0905 473.88 508.932 416.511C1172.71 344.799 1442.25 49.993 1523.28 -329.006" stroke="#6B8494"/>
<path opacity="0.342857" d="M-347.523 1275.87C-262.192 1017.7 41.8007 498.848 575.13 488.77C1241.79 476.174 1535.25 206.868 1648.33 -162.831" stroke="#6B8494"/>
<path opacity="0.4" d="M-361.285 1259.97C-254.306 1010.74 92.5112 521.582 623.95 558.755C1288.25 605.222 1603.23 363.335 1747.36 5.63257" stroke="#6B8494"/>
<path opacity="0.457143" d="M-358.794 1241.62C-231.071 1003.14 155.718 547.177 681.094 631.19C1337.81 736.207 1671.79 523.435 1845.73 180.321" stroke="#6B8494"/>
<path opacity="0.514286" d="M-364.161 1232.08C-216.749 1006.06 206.874 586.531 722.074 716.604C1366.07 879.196 1716.36 697.002 1918.69 370.949" stroke="#6B8494"/>
<path opacity="0.571429" d="M-369.926 1221.95C-204.021 1010 253.039 629.855 754.039 804.85C1380.29 1023.59 1744.11 873.199 1973.18 566.536" stroke="#6B8494"/>
<path opacity="0.628571" d="M-384.333 1278.47C-217.395 1068.21 241.153 692.561 739.838 872.042C1363.19 1096.39 1727.19 949.463 1957.78 645.142" stroke="#6B8494"/>
<path opacity="0.685714" d="M-377.494 1262.41C-187.479 1081.31 306.669 761.561 763.134 931.402C1333.71 1143.7 1705.15 1023.03 1969.53 760.646" stroke="#6B8494"/>
<path opacity="0.742857" d="M-385.627 1236.47C-176.878 1085.42 346.078 823.374 767.909 983.506C1295.2 1183.67 1672.53 1090.16 1964.34 871.01" stroke="#6B8494"/>
<path opacity="0.8" d="M-430.062 1228.76C-206.365 1109.71 339.118 907.986 731.477 1053.48C1221.93 1235.34 1603.26 1169.07 1916.99 996.013" stroke="#6B8494"/>
</svg>
