<svg width="25" height="25" viewBox="0 0 25 25" fill="none" xmlns="http://www.w3.org/2000/svg">
<g clipPath="url(#clip0_74_1356)">
<path fillRule="evenodd" clipRule="evenodd" d="M17.02 5.77261C18.2923 5.71011 19.25 6.75695 19.25 7.95154V13.4108C19.25 14.6716 18.2316 15.6365 17.0459 15.7249C16.5529 15.7617 16.0551 15.8216 15.678 15.9138C14.9402 16.094 13.9666 16.5647 13.357 16.8858C12.8214 17.1681 12.1786 17.1681 11.643 16.8858C11.0334 16.5647 10.0598 16.094 9.32199 15.9138C8.94487 15.8216 8.44708 15.7617 7.95414 15.7249C6.76836 15.6365 5.75 14.6716 5.75 13.4108V7.99649C5.75 6.77528 6.748 5.71817 8.04194 5.81291C8.56744 5.85139 9.17286 5.91879 9.67802 6.04222C10.5998 6.26744 11.6985 6.80646 12.3132 7.1291C12.4157 7.1829 12.5434 7.18078 12.6463 7.12125C13.2018 6.79984 14.1675 6.27873 14.9997 6.04804C15.6227 5.87535 16.3904 5.80353 17.02 5.77261ZM17.75 7.95154C17.75 7.53391 17.4314 7.2542 17.0935 7.2708C16.4907 7.30041 15.8582 7.36663 15.4003 7.49354C14.7696 7.66839 13.9487 8.1007 13.3975 8.41959C13.3493 8.44749 13.3001 8.47306 13.25 8.49628V15.2586C13.8591 14.9625 14.6393 14.6234 15.322 14.4566C15.8199 14.335 16.4149 14.2678 16.9343 14.2291C17.4097 14.1936 17.75 13.8157 17.75 13.4108V7.95154ZM11.616 8.45726C11.66 8.48035 11.7047 8.50154 11.75 8.52081V15.2586C11.1409 14.9625 10.3607 14.6234 9.67802 14.4566C9.18009 14.335 8.58508 14.2678 8.06568 14.2291C7.59031 14.1936 7.25 13.8157 7.25 13.4108V7.99649C7.25 7.56975 7.58277 7.28331 7.9324 7.30891C8.4319 7.34548 8.93898 7.40578 9.32199 7.49936C10.048 7.67676 11.0035 8.13574 11.616 8.45726Z" fill="#141522"/>
<path fillRule="evenodd" clipRule="evenodd" d="M10.4436 0.75C8.60583 0.749985 7.15019 0.749973 6.01098 0.903136C4.83856 1.06076 3.88961 1.39288 3.14124 2.14124C2.39288 2.88961 2.06076 3.83856 1.90314 5.01098C1.74997 6.15019 1.74998 7.60582 1.75 9.44357V13.5564C1.74998 15.3942 1.74997 16.8498 1.90314 17.989C2.06076 19.1614 2.39288 20.1104 3.14124 20.8588C3.88961 21.6071 4.83856 21.9392 6.01098 22.0969C7.15018 22.25 8.6058 22.25 10.4435 22.25H14.5564C16.3942 22.25 17.8498 22.25 18.989 22.0969C20.1614 21.9392 21.1104 21.6071 21.8588 20.8588C22.6071 20.1104 22.9392 19.1614 23.0969 17.989C23.25 16.8498 23.25 15.3942 23.25 13.5565V9.44359C23.25 7.60585 23.25 6.15018 23.0969 5.01098C22.9392 3.83856 22.6071 2.88961 21.8588 2.14124C21.1104 1.39288 20.1614 1.06076 18.989 0.903136C17.8498 0.749973 16.3942 0.749985 14.5564 0.75H10.4436ZM4.2019 3.2019C4.62511 2.77869 5.20476 2.52503 6.21085 2.38976C7.23851 2.25159 8.59318 2.25 10.5 2.25H14.5C16.4068 2.25 17.7615 2.25159 18.7892 2.38976C19.7952 2.52503 20.3749 2.77869 20.7981 3.2019C21.2213 3.62511 21.475 4.20476 21.6102 5.21085C21.7484 6.23851 21.75 7.59318 21.75 9.5V13.5C21.75 15.4068 21.7484 16.7615 21.6102 17.7892C21.475 18.7952 21.2213 19.3749 20.7981 19.7981C20.3749 20.2213 19.7952 20.475 18.7892 20.6102C17.7615 20.7484 16.4068 20.75 14.5 20.75H10.5C8.59318 20.75 7.23851 20.7484 6.21085 20.6102C5.20476 20.475 4.62511 20.2213 4.2019 19.7981C3.77869 19.3749 3.52503 18.7952 3.38976 17.7892C3.25159 16.7615 3.25 15.4068 3.25 13.5V9.5C3.25 7.59318 3.25159 6.23851 3.38976 5.21085C3.52503 4.20476 3.77869 3.62511 4.2019 3.2019Z" fill="#141522"/>
</g>
<defs>
<clipPath id="clip0_74_1356">
<rect width="24" height="24" fill="white" transform="translate(0.5 0.5)"/>
</clipPath>
</defs>
</svg>
