<svg width="193" height="94" viewBox="0 0 193 94" fill="none" xmlns="http://www.w3.org/2000/svg">
<g clipPath="url(#clip0_74_682)">
<path d="M82.3294 54.6319V44.3221H82.5131L90.0176 54.6319H92.3792V39.4918H89.7552V49.7756H89.5716L82.067 39.4918H79.7054V54.6319H82.3294ZM99.805 54.8656C103.269 54.8656 105.394 52.6323 105.394 48.8927C105.394 45.1791 103.269 42.9197 99.805 42.9197C96.3676 42.9197 94.216 45.1791 94.216 48.8927C94.2422 52.6323 96.3414 54.8656 99.805 54.8656ZM99.805 52.6842C97.9683 52.6842 96.9187 51.3078 96.9187 48.8927C96.9187 46.5035 97.9683 45.1011 99.805 45.1011C101.642 45.1011 102.691 46.5035 102.691 48.8927C102.691 51.3078 101.642 52.6842 99.805 52.6842ZM107.782 40.3488V43.2314H105.945V45.3089H107.782V51.5675C107.782 53.8009 108.831 54.6838 111.508 54.6838C112.007 54.6838 112.505 54.6319 112.899 54.554V52.5284C112.584 52.5544 112.374 52.5803 112.007 52.5803C110.904 52.5803 110.406 52.0869 110.406 50.9443V45.3089H112.899V43.2314H110.406V40.3488H107.782ZM114.473 54.6319H117.097V43.1534H114.473V54.6319ZM115.785 41.2577C116.651 41.2577 117.359 40.5565 117.359 39.6995C117.359 38.8166 116.651 38.1154 115.785 38.1154C114.919 38.1154 114.211 38.8166 114.211 39.6995C114.211 40.5565 114.919 41.2577 115.785 41.2577ZM124.287 54.8656C127.75 54.8656 129.876 52.6323 129.876 48.8927C129.876 45.1791 127.75 42.9197 124.287 42.9197C120.849 42.9197 118.698 45.1791 118.698 48.8927C118.698 52.6323 120.797 54.8656 124.287 54.8656ZM124.287 52.6842C122.45 52.6842 121.4 51.3078 121.4 48.8927C121.4 46.5035 122.45 45.1011 124.287 45.1011C126.097 45.1011 127.173 46.5035 127.173 48.8927C127.147 51.3078 126.097 52.6842 124.287 52.6842ZM131.424 54.6319H134.048V47.9578C134.048 46.2698 135.045 45.205 136.593 45.205C138.194 45.205 138.928 46.088 138.928 47.8279V54.6319H141.552V47.2047C141.552 44.4519 140.135 42.9197 137.564 42.9197C135.832 42.9197 134.678 43.6988 134.127 44.9973H133.943V43.1534H131.398C131.424 43.1534 131.424 54.6319 131.424 54.6319Z" fill="white"/>
<path fillRule="evenodd" clipRule="evenodd" d="M54.546 38.5227C55.3097 39.1388 55.586 39.0902 57.0159 38.9929L70.4865 38.1823C70.7789 38.1823 70.5352 37.8904 70.4377 37.858L68.1953 36.2529C67.7728 35.9286 67.1879 35.5395 66.0992 35.6368L53.0674 36.5933C52.5961 36.642 52.4986 36.8852 52.6936 37.0635L54.546 38.5227ZM55.3585 41.6519V55.79C55.3585 56.552 55.7322 56.8276 56.5934 56.779L71.3964 55.9197C72.2576 55.871 72.3551 55.3522 72.3551 54.7361V40.6953C72.3551 40.0792 72.1114 39.7387 71.5914 39.7874L56.1222 40.6953C55.5535 40.744 55.3585 41.0358 55.3585 41.6519ZM69.9665 42.4139C70.064 42.8355 69.9665 43.2732 69.544 43.3219L68.829 43.4678V53.9092C68.2116 54.2335 67.6429 54.428 67.1554 54.428C66.3917 54.428 66.1967 54.1848 65.628 53.4715L60.9645 46.1592V53.2283L62.4431 53.5525C62.4431 53.5525 62.4431 54.4118 61.2569 54.4118L57.9746 54.6064C57.8771 54.4118 57.9746 53.9416 58.2996 53.8444L59.1608 53.6012V44.2623L57.9746 44.165C57.8771 43.7434 58.1209 43.1273 58.7871 43.0787L62.3131 42.8355L67.1716 50.2288V43.6948L65.9367 43.5489C65.8392 43.0301 66.2292 42.6409 66.7004 42.5923L69.9665 42.4139ZM51.9787 35.2963L65.5467 34.3073C67.2041 34.1613 67.6429 34.2586 68.6828 35.0207L73.0051 38.0525C73.72 38.5714 73.9638 38.7173 73.9638 39.2848V55.9359C73.9638 56.9735 73.59 57.5896 72.2576 57.6869L56.5122 58.6435C55.5047 58.6922 55.0335 58.5462 54.5135 57.8815L51.3125 53.7471C50.7437 52.9851 50.5 52.4176 50.5 51.7528V36.95C50.5 36.0907 50.89 35.3936 51.9787 35.2963Z" fill="white"/>
</g>
<defs>
<clipPath id="clip0_74_682">
<rect width="91.375" height="34" fill="white" transform="translate(50.5 30)"/>
</clipPath>
</defs>
</svg>
