<svg width="19" height="11" viewBox="0 0 19 11" fill="none" xmlns="http://www.w3.org/2000/svg">
<path fillRule="evenodd" clipRule="evenodd" d="M12.8272 0.435023C13.1393 0.707434 13.1714 1.18122 12.899 1.49325L5.04184 10.4933C4.89941 10.6564 4.69342 10.75 4.47685 10.75C4.26029 10.75 4.05429 10.6564 3.91186 10.4933L0.769007 6.89325C0.496597 6.58122 0.528718 6.10743 0.840752 5.83502C1.15279 5.56261 1.62657 5.59473 1.89898 5.90677L4.47685 8.8596L11.769 0.506767C12.0414 0.194733 12.5152 0.162612 12.8272 0.435023Z" fill="#141522"/>
<path fillRule="evenodd" clipRule="evenodd" d="M17.8514 0.519463C18.1514 0.805132 18.163 1.27986 17.8773 1.57981L9.3056 10.5798C9.15411 10.7389 8.94051 10.8235 8.72119 10.8114C8.50187 10.7993 8.29888 10.6917 8.16581 10.5169L7.73748 9.95442C7.48655 9.62487 7.55027 9.15429 7.87982 8.90336C8.16293 8.68778 8.55012 8.70443 8.81273 8.92235L16.7911 0.545309C17.0768 0.245366 17.5515 0.233794 17.8514 0.519463Z" fill="#141522"/>
</svg>
