<svg width="286" height="285" viewBox="0 0 286 285" fill="none" xmlns="http://www.w3.org/2000/svg">
<rect width="286" height="285" rx="100" fill="#F8F9FA"/>
<path opacity="0.5" d="M205.003 136.175C205.003 174.103 174.427 204.849 136.71 204.849C98.9929 204.849 68.417 174.103 68.417 136.175C68.417 98.2467 98.9929 67.5 136.71 67.5C174.427 67.5 205.003 98.2467 205.003 136.175Z" fill="#1E4C83"/>
<path fillRule="evenodd" clipRule="evenodd" d="M194.005 193.79C196.11 191.673 199.524 191.673 201.63 193.79L216.007 208.248C218.113 210.365 218.113 213.798 216.007 215.915C213.902 218.033 210.488 218.033 208.382 215.915L194.005 201.458C191.899 199.34 191.899 195.907 194.005 193.79Z" fill="#1E4C83"/>
</svg>
