<svg width="193" height="94" viewBox="0 0 193 94" fill="none" xmlns="http://www.w3.org/2000/svg">
<g clipPath="url(#clip0_74_662)">
<path d="M62.032 32.1807C53.8168 32.1807 47.1567 38.8405 47.1567 47.0558C47.1567 55.2713 53.8168 61.9307 62.032 61.9307C70.2481 61.9307 76.9075 55.2713 76.9075 47.0558C76.9075 38.8411 70.2481 32.1814 62.0318 32.1814L62.032 32.1807ZM68.8537 53.6348C68.5873 54.0718 68.0153 54.2103 67.5783 53.9421C64.0858 51.8088 59.6891 51.3256 54.5112 52.5086C54.0122 52.6223 53.5148 52.3097 53.4011 51.8106C53.2869 51.3114 53.5983 50.814 54.0985 50.7004C59.7649 49.4058 64.6254 49.9632 68.5464 52.3594C68.9834 52.6276 69.1219 53.1978 68.8537 53.6348ZM70.6744 49.5845C70.3387 50.1302 69.6246 50.3025 69.0793 49.9668C65.0809 47.5091 58.9858 46.7973 54.2564 48.2329C53.6431 48.4182 52.9953 48.0725 52.8091 47.4602C52.6244 46.8469 52.9702 46.2003 53.5825 46.0138C58.9848 44.3746 65.7008 45.1686 70.2925 47.9903C70.8379 48.326 71.0102 49.0401 70.6744 49.5847V49.5845ZM70.8307 45.3668C66.0365 42.5193 58.1266 42.2574 53.5493 43.6467C52.8143 43.8696 52.0369 43.4547 51.8142 42.7196C51.5915 41.9842 52.006 41.2075 52.7416 40.984C57.9961 39.3889 66.731 39.6971 72.2507 42.9738C72.9133 43.3662 73.13 44.2201 72.7374 44.8803C72.3466 45.5415 71.4905 45.7594 70.8315 45.3668H70.8307ZM87.6274 45.9125C85.0589 45.3001 84.6024 44.8702 84.6024 43.9669C84.6024 43.1136 85.4053 42.5393 86.6007 42.5393C87.7589 42.5393 88.9064 42.9754 90.1107 43.8732C90.1462 43.9003 90.1924 43.9112 90.2368 43.9041C90.283 43.8973 90.3221 43.8726 90.3487 43.8355L91.6028 42.0677C91.6543 41.9949 91.6401 41.8945 91.5708 41.8389C90.1374 40.6891 88.5245 40.1301 86.6381 40.1301C83.8652 40.1301 81.9273 41.7944 81.9273 44.1755C81.9273 46.7289 83.5988 47.633 86.4871 48.331C88.9437 48.8971 89.3593 49.3713 89.3593 50.219C89.3593 51.1586 88.5209 51.7431 87.1709 51.7431C85.6717 51.7431 84.4479 51.2368 83.0801 50.0538C83.0464 50.0236 83.0002 50.0112 82.9576 50.0129C82.9114 50.0165 82.8705 50.0378 82.8421 50.0716L81.4353 51.7448C81.3766 51.8159 81.3838 51.9189 81.4513 51.9793C83.0428 53.4003 85.0003 54.1499 87.1141 54.1499C90.1018 54.1499 92.0327 52.5175 92.0327 49.9898C92.038 47.857 90.7608 46.6758 87.6328 45.9148L87.6274 45.9125ZM98.7933 43.3795C97.4984 43.3795 96.4361 43.8897 95.5586 44.935V43.7584C95.5586 43.6655 95.484 43.5898 95.3917 43.5898H93.0914C92.999 43.5898 92.9244 43.6655 92.9244 43.7584V56.8322C92.9244 56.9245 92.999 57.0009 93.0914 57.0009H95.3917C95.484 57.0009 95.5586 56.9245 95.5586 56.8322V52.7058C96.4361 53.6881 97.4984 54.1695 98.7933 54.1695C101.2 54.1695 103.637 52.3168 103.637 48.775C103.641 45.2326 101.204 43.3793 98.7951 43.3793L98.7933 43.3795ZM100.962 48.775C100.962 50.5778 99.852 51.8372 98.2604 51.8372C96.6884 51.8372 95.5018 50.521 95.5018 48.775C95.5018 47.0289 96.6884 45.713 98.2604 45.713C99.8253 45.7129 100.962 47.0003 100.962 48.7749V48.775ZM109.881 43.3795C106.781 43.3795 104.353 45.7662 104.353 48.8136C104.353 51.8283 106.765 54.189 109.844 54.189C112.954 54.189 115.389 51.8106 115.389 48.775C115.389 45.7498 112.97 43.3799 109.881 43.3799V43.3795ZM109.881 51.855C108.233 51.855 106.989 50.5298 106.989 48.7741C106.989 47.0105 108.19 45.7306 109.844 45.7306C111.503 45.7306 112.753 47.0552 112.753 48.8127C112.753 50.576 111.545 51.855 109.881 51.855ZM122.008 43.5898H119.477V41.0025C119.477 40.9098 119.402 40.8341 119.31 40.8341H117.009C116.917 40.8341 116.84 40.9098 116.84 41.0025V43.5898H115.736C115.643 43.5898 115.569 43.6655 115.569 43.7584V45.7349C115.569 45.8276 115.643 45.9035 115.736 45.9035H116.84V51.0183C116.84 53.0842 117.869 54.1322 119.899 54.1322C120.723 54.1322 121.407 53.9616 122.052 53.5957C122.105 53.5673 122.137 53.5105 122.137 53.4501V51.5672C122.137 51.5104 122.107 51.4553 122.057 51.4251C122.008 51.3931 121.946 51.3913 121.894 51.418C121.452 51.64 121.024 51.7431 120.544 51.7431C119.807 51.7431 119.477 51.4073 119.477 50.6577V45.9044H122.008C122.1 45.9044 122.175 45.8287 122.175 45.7358V43.7595C122.178 43.6666 122.104 43.5909 122.01 43.5909L122.008 43.5898ZM130.825 43.6V43.2822C130.825 42.3473 131.184 41.9304 131.987 41.9304C132.467 41.9304 132.852 42.0256 133.284 42.1695C133.337 42.1862 133.392 42.1779 133.435 42.1461C133.479 42.1143 133.504 42.0633 133.504 42.0093V40.0713C133.504 39.9973 133.458 39.9317 133.385 39.9099C132.93 39.7743 132.348 39.6353 131.474 39.6353C129.351 39.6353 128.227 40.8314 128.227 43.0932V43.5799H127.122C127.029 43.5799 126.953 43.6556 126.953 43.7483V45.7349C126.953 45.8276 127.029 45.9035 127.122 45.9035H128.227V53.7911C128.227 53.8853 128.303 53.9599 128.395 53.9599H130.694C130.788 53.9599 130.863 53.8853 130.863 53.7911V45.904H133.01L136.3 53.7911C135.927 54.6189 135.559 54.7841 135.058 54.7841C134.653 54.7841 134.225 54.6633 133.79 54.4235C133.749 54.4022 133.699 54.3986 133.657 54.4111C133.612 54.427 133.575 54.459 133.557 54.5016L132.777 56.2122C132.74 56.2939 132.772 56.3881 132.85 56.4307C133.664 56.8712 134.397 57.0595 135.305 57.0595C137.003 57.0595 137.943 56.2673 138.769 54.1393L142.759 43.8302C142.78 43.7783 142.773 43.7197 142.741 43.6737C142.711 43.628 142.659 43.6005 142.604 43.6005H140.21C140.137 43.6005 140.073 43.6461 140.05 43.7135L137.597 50.7181L134.911 43.7088C134.886 43.6437 134.824 43.6005 134.754 43.6005H130.825V43.6ZM125.713 43.5898H123.413C123.32 43.5898 123.244 43.6655 123.244 43.7584V53.7911C123.244 53.8853 123.32 53.9599 123.413 53.9599H125.713C125.805 53.9599 125.882 53.8853 125.882 53.7911V43.7591C125.882 43.6662 125.807 43.5905 125.713 43.5905V43.5898ZM124.576 39.0214C123.665 39.0214 122.926 39.7589 122.926 40.67C122.926 41.5816 123.665 42.32 124.576 42.32C125.488 42.32 126.225 41.5816 126.225 40.67C126.225 39.7591 125.486 39.0214 124.576 39.0214ZM144.723 46.8158C143.814 46.8158 143.105 46.0848 143.105 45.1972C143.105 44.3096 143.823 43.5703 144.732 43.5703C145.641 43.5703 146.35 44.3011 146.35 45.188C146.35 46.0756 145.633 46.8158 144.723 46.8158ZM144.732 43.7312C143.902 43.7312 143.275 44.3902 143.275 45.1972C143.275 46.0038 143.899 46.654 144.723 46.654C145.553 46.654 146.18 45.9955 146.18 45.188C146.18 44.3814 145.556 43.7312 144.732 43.7312ZM145.091 45.3544L145.549 45.9953H145.162L144.75 45.4073H144.396V45.9953H144.073V44.2964H144.83C145.226 44.2964 145.485 44.4984 145.485 44.8384C145.487 45.1169 145.325 45.2871 145.093 45.3544H145.091ZM144.817 44.5879H144.396V45.1253H144.817C145.027 45.1253 145.153 45.0224 145.153 44.8563C145.153 44.6816 145.027 44.5879 144.817 44.5879Z" fill="white"/>
</g>
<defs>
<clipPath id="clip0_74_662">
<rect width="99.1667" height="34" fill="white" transform="translate(47.104 30)"/>
</clipPath>
</defs>
</svg>
