<svg width="23" height="23" viewBox="0 0 23 23" fill="none" xmlns="http://www.w3.org/2000/svg">
<path d="M13.0639 3.00965L14.8239 6.52965C15.0639 7.01965 15.7039 7.48965 16.2439 7.57965L19.4339 8.10965C21.4739 8.44965 21.9539 9.92965 20.4839 11.3896L18.0039 13.8696C17.5839 14.2896 17.3539 15.0996 17.4839 15.6796L18.1939 18.7496C18.7539 21.1796 17.4639 22.1196 15.3139 20.8496L12.3239 19.0796C11.7839 18.7596 10.8939 18.7596 10.3439 19.0796L7.35389 20.8496C5.21389 22.1196 3.91389 21.1696 4.47389 18.7496L5.18389 15.6796C5.31389 15.0996 5.08389 14.2896 4.66389 13.8696L2.18389 11.3896C0.723893 9.92965 1.19389 8.44965 3.23389 8.10965L6.42389 7.57965C6.95389 7.48965 7.59389 7.01965 7.83389 6.52965L9.59389 3.00965C10.5539 1.09965 12.1139 1.09965 13.0639 3.00965Z" stroke="black" strokeOpacity="0.88" strokeWidth="1.5" strokeLinecap="round" strokeLinejoin="round"/>
</svg>
