<svg width="24" height="25" viewBox="0 0 24 25" fill="none" xmlns="http://www.w3.org/2000/svg">
<path fillRule="evenodd" clipRule="evenodd" d="M7.33569 3.88268C7.93132 2.37244 10.0687 2.37244 10.6643 3.88268L11.7363 6.60082C11.7657 6.67532 11.8247 6.73429 11.8992 6.76367L14.6173 7.83569C16.1276 8.43132 16.1276 10.5687 14.6173 11.1643L11.8992 12.2363C11.8247 12.2657 11.7657 12.3247 11.7363 12.3992L10.6643 15.1173C10.0687 16.6276 7.93132 16.6276 7.33569 15.1173L6.26367 12.3992C6.23429 12.3247 6.17532 12.2657 6.10082 12.2363L3.38268 11.1643C1.87244 10.5687 1.87244 8.43132 3.38268 7.83569L6.10082 6.76367C6.17532 6.73429 6.23429 6.67532 6.26367 6.60082L7.33569 3.88268ZM9.26891 4.43301C9.17267 4.18899 8.82733 4.189 8.73109 4.43301L7.65907 7.15115C7.47722 7.61224 7.11224 7.97722 6.65116 8.15907L3.93301 9.23109C3.68899 9.32733 3.689 9.67267 3.93301 9.76891L6.65115 10.8409C7.11224 11.0228 7.47722 11.3878 7.65907 11.8488L8.73109 14.567C8.82733 14.811 9.17267 14.811 9.26891 14.567L10.3409 11.8488C10.5228 11.3878 10.8878 11.0228 11.3488 10.8409L14.067 9.76891C14.311 9.67267 14.311 9.32733 14.067 9.23109L11.3488 8.15907C10.8878 7.97722 10.5228 7.61224 10.3409 7.15116L9.26891 4.43301ZM15.7908 13.573C16.2235 12.4757 17.7765 12.4757 18.2092 13.573L18.9779 15.5221L20.927 16.2908C22.0243 16.7235 22.0243 18.2765 20.927 18.7092L18.9779 19.4779L18.2092 21.427C17.7765 22.5243 16.2235 22.5243 15.7908 21.427L15.0221 19.4779L13.073 18.7092C11.9757 18.2765 11.9757 16.7235 13.073 16.2908L15.0221 15.5221L15.7908 13.573ZM17 14.5953L16.3856 16.1533C16.2534 16.4883 15.9883 16.7534 15.6533 16.8856L14.0953 17.5L15.6533 18.1144C15.9883 18.2466 16.2534 18.5117 16.3856 18.8467L17 20.4047L17.6144 18.8467C17.7466 18.5117 18.0117 18.2466 18.3467 18.1144L19.9047 17.5L18.3467 16.8856C18.0117 16.7534 17.7466 16.4883 17.6144 16.1533L17 14.5953Z" fill="#6C7278"/>
</svg>
