<svg width="18" height="18" viewBox="0 0 18 18" fill="none" xmlns="http://www.w3.org/2000/svg">
<g clipPath="url(#clip0_915_3475)">
<rect width="18" height="18" rx="9" fill="white"/>
<path fillRule="evenodd" clipRule="evenodd" d="M0 0H7.71429V8.4H0V0Z" fill="#1A47B8"/>
<path fillRule="evenodd" clipRule="evenodd" d="M7.71429 0V1.2H18V0H7.71429ZM7.71429 2.4V3.6H18V2.4H7.71429ZM7.71429 4.8V6H18V4.8H7.71429ZM7.71429 7.2V8.4H18V7.2H7.71429ZM0 9.6V10.8H18V9.6H0ZM0 12V13.2H18V12H0ZM0 14.4V15.6H18V14.4H0ZM0 16.8V18H18V16.8H0Z" fill="#F93939"/>
<path fillRule="evenodd" clipRule="evenodd" d="M0.857422 1.19922V2.39922H1.71456V1.19922H0.857422ZM2.57171 1.19922V2.39922H3.42885V1.19922H2.57171ZM4.28599 1.19922V2.39922H5.14314V1.19922H4.28599ZM6.00028 1.19922V2.39922H6.85742V1.19922H6.00028ZM5.14314 2.39922V3.59922H6.00028V2.39922H5.14314ZM3.42885 2.39922V3.59922H4.28599V2.39922H3.42885ZM1.71456 2.39922V3.59922H2.57171V2.39922H1.71456ZM0.857422 3.59922V4.79922H1.71456V3.59922H0.857422ZM2.57171 3.59922V4.79922H3.42885V3.59922H2.57171ZM4.28599 3.59922V4.79922H5.14314V3.59922H4.28599ZM6.00028 3.59922V4.79922H6.85742V3.59922H6.00028ZM0.857422 5.99922V7.19922H1.71456V5.99922H0.857422ZM2.57171 5.99922V7.19922H3.42885V5.99922H2.57171ZM4.28599 5.99922V7.19922H5.14314V5.99922H4.28599ZM6.00028 5.99922V7.19922H6.85742V5.99922H6.00028ZM5.14314 4.79922V5.99922H6.00028V4.79922H5.14314ZM3.42885 4.79922V5.99922H4.28599V4.79922H3.42885ZM1.71456 4.79922V5.99922H2.57171V4.79922H1.71456Z" fill="white"/>
</g>
<defs>
<clipPath id="clip0_915_3475">
<rect width="18" height="18" rx="9" fill="white"/>
</clipPath>
</defs>
</svg>
