<svg width="64" height="65" viewBox="0 0 64 65" fill="none" xmlns="http://www.w3.org/2000/svg">
<path fillRule="evenodd" clipRule="evenodd" d="M63.6666 32.5006C63.6666 49.9897 49.4889 64.1673 31.9999 64.1673C14.5109 64.1673 0.333252 49.9897 0.333252 32.5006C0.333252 15.0116 14.5109 0.833984 31.9999 0.833984C49.4889 0.833984 63.6666 15.0116 63.6666 32.5006ZM44.7626 22.9046C45.6901 23.8321 45.6901 25.3359 44.7626 26.2634L28.9293 42.0967C28.0018 43.0242 26.498 43.0242 25.5705 42.0967L19.2372 35.7634C18.3097 34.8359 18.3097 33.3321 19.2372 32.4046C20.1647 31.4771 21.6685 31.4771 22.596 32.4046L27.2499 37.0586L34.3269 29.9816L41.4039 22.9046C42.3314 21.9771 43.8351 21.9771 44.7626 22.9046Z" fill="#28C76F"/>
</svg>
