<svg width="193" height="94" viewBox="0 0 193 94" fill="none" xmlns="http://www.w3.org/2000/svg">
<g clipPath="url(#clip0_74_659)">
<path fillRule="evenodd" clipRule="evenodd" d="M118.563 44.591C118.828 45.0483 118.915 45.5686 118.944 46.1536L118.981 46.9333V52.3851L119.02 53.1656C119.097 54.4402 120.037 55.3827 121.321 55.4629L122.098 55.5013V46.9333L122.136 46.1536C122.168 45.5752 122.254 45.0451 122.523 44.5845C122.797 44.112 123.191 43.7201 123.665 43.4479C124.138 43.1758 124.675 43.0331 125.221 43.0341C125.768 43.035 126.304 43.1797 126.777 43.4536C127.249 43.7275 127.642 44.1209 127.914 44.5943C128.179 45.0516 128.262 45.5817 128.294 46.1536L128.332 46.9308V52.3851L128.371 53.1656C128.451 54.4468 129.384 55.3892 130.672 55.4629L131.449 55.5013V46.1536C131.449 44.5007 130.792 42.9154 129.623 41.7464C128.455 40.5773 126.87 39.9203 125.217 39.9196C124.332 39.9187 123.458 40.1065 122.651 40.4707C121.845 40.8348 121.126 41.3668 120.541 42.0311C119.957 41.3671 119.238 40.8352 118.431 40.471C117.625 40.1067 116.751 39.9185 115.866 39.9188C114.572 39.9188 113.371 40.3115 112.376 40.9897C111.769 40.3123 110.411 39.9188 109.631 39.9188V55.5013L110.411 55.4629C111.715 55.377 112.657 54.4599 112.708 53.1656L112.75 52.3851V46.9333L112.788 46.1536C112.821 45.5654 112.903 45.0483 113.169 44.5877C113.443 44.1156 113.837 43.7237 114.31 43.4513C114.783 43.1788 115.32 43.0352 115.866 43.035C116.413 43.0351 116.949 43.1789 117.423 43.452C117.896 43.7251 118.29 44.1179 118.563 44.591ZM65.2202 55.4637L65.9998 55.5013H77.6865L77.6481 54.7241C77.5425 53.4429 76.6352 52.507 75.35 52.4236L74.5703 52.3851H67.5592L76.9069 43.0341L76.8684 42.2578C76.8079 40.9635 75.8621 40.0284 74.5703 39.9572L73.7907 39.9221L62.104 39.9188L62.1425 40.6984C62.2447 41.9673 63.1651 42.9229 64.4397 42.9965L65.2202 43.035H72.2314L62.8837 52.3859L62.9221 53.1656C62.999 54.45 63.9259 55.3802 65.2202 55.4629V55.4637ZM106.572 42.1997C107.296 42.9231 107.87 43.7821 108.262 44.7274C108.653 45.6728 108.855 46.686 108.855 47.7092C108.855 48.7325 108.653 49.7457 108.262 50.691C107.87 51.6364 107.296 52.4953 106.572 53.2188C105.11 54.6796 103.128 55.5001 101.062 55.5001C98.9948 55.5001 97.0127 54.6796 95.5507 53.2188C92.5082 50.1762 92.5082 45.2422 95.5507 42.1997C96.2737 41.4764 97.132 40.9027 98.0767 40.5112C99.0214 40.1197 100.034 39.9181 101.057 39.918C102.081 39.9173 103.095 40.1185 104.042 40.5101C104.988 40.9018 105.848 41.4762 106.572 42.2005V42.1997ZM104.367 44.4061C105.244 45.2831 105.736 46.4723 105.736 47.7121C105.736 48.9519 105.244 50.141 104.367 51.0181C103.49 51.8944 102.301 52.3867 101.062 52.3867C99.8217 52.3867 98.6326 51.8944 97.7555 51.0181C96.8792 50.141 96.3869 48.9519 96.3869 47.7121C96.3869 46.4723 96.8792 45.2831 97.7555 44.4061C98.6326 43.5297 99.8217 43.0375 101.062 43.0375C102.301 43.0375 103.49 43.5297 104.367 44.4061ZM84.7043 39.918C85.7269 39.9182 86.7395 40.1199 87.6842 40.5116C88.6289 40.9032 89.4872 41.4771 90.2101 42.2005C93.2535 45.2422 93.2535 50.1771 90.2101 53.2188C88.7482 54.6796 86.766 55.5001 84.6993 55.5001C82.6327 55.5001 80.6505 54.6796 79.1886 53.2188C76.146 50.1762 76.146 45.2422 79.1886 42.1997C79.9115 41.4764 80.7699 40.9027 81.7146 40.5112C82.6593 40.1197 83.6718 39.9181 84.6944 39.918H84.7043ZM88.0053 44.4045C88.8819 45.2815 89.3744 46.4708 89.3744 47.7109C89.3744 48.9509 88.8819 50.1402 88.0053 51.0173C87.1283 51.8936 85.9392 52.3859 84.6993 52.3859C83.4595 52.3859 82.2704 51.8936 81.3934 51.0173C80.517 50.1402 80.0247 48.9511 80.0247 47.7113C80.0247 46.4714 80.517 45.2823 81.3934 44.4053C82.2704 43.5289 83.4595 43.0366 84.6993 43.0366C85.9392 43.0366 87.1283 43.5289 88.0053 44.4053V44.4045Z" fill="white"/>
</g>
<defs>
<clipPath id="clip0_74_659">
<rect width="69.4166" height="34" fill="white" transform="translate(62.104 30)"/>
</clipPath>
</defs>
</svg>
