<svg width="32" height="29" viewBox="0 0 32 29" fill="none" xmlns="http://www.w3.org/2000/svg">
<path d="M15.7695 2.91663C22.7715 2.91674 28.4061 8.15659 28.4062 14.4996C28.4062 20.8428 22.7716 26.0835 15.7695 26.0836C8.76731 26.0836 3.13281 20.8429 3.13281 14.4996C3.133 8.15652 8.76743 2.91663 15.7695 2.91663ZM15.2832 7.6803C14.5087 7.68032 13.7979 8.27653 13.7979 9.08655V14.0406C13.7979 15.2327 14.5542 16.5216 15.6035 17.2028L15.8174 17.3307L19.8896 19.566V19.5651C20.1356 19.7103 20.3933 19.7604 20.6299 19.7604C21.1158 19.7603 21.6109 19.5373 21.8994 19.0895L21.9004 19.0905C21.9023 19.0875 21.9043 19.0846 21.9062 19.0817L21.9053 19.0807C22.3615 18.3829 22.0872 17.5113 21.3818 17.1305H21.3828L17.3105 14.8951L17.3057 14.8922L17.2236 14.8375C17.1361 14.7676 17.0329 14.6535 16.9414 14.5055C16.8179 14.3056 16.7686 14.1293 16.7686 14.0406V9.08655C16.7685 8.27651 16.0578 7.6803 15.2832 7.6803Z" fill="#F89A21" stroke="#F89A21"/>
</svg>
