<svg width="31" height="29" viewBox="0 0 31 29" fill="none" xmlns="http://www.w3.org/2000/svg">
<path d="M15.5029 4.64453C19.7706 4.64465 23.8659 6.91505 26.7607 10.9424L27.0371 11.3379C27.6151 12.1868 27.9189 13.3305 27.9189 14.498C27.9189 15.6659 27.6153 16.8071 27.0381 17.6494L27.0371 17.6504C25.5775 19.7927 23.7977 21.4662 21.8281 22.6094C19.8581 23.7408 17.7089 24.3437 15.5029 24.3438C11.0971 24.3438 6.87544 21.9358 3.96875 17.6514L3.96777 17.6504L3.8623 17.4873C3.35269 16.658 3.08598 15.5869 3.08594 14.4941C3.08594 13.3283 3.38967 12.1871 3.96777 11.3379C5.42726 9.19575 7.20643 7.52118 9.17578 6.37793L9.17676 6.37891C11.1469 5.24742 13.2968 4.64453 15.5029 4.64453ZM15.5029 9.11816C12.3646 9.11816 9.78418 11.4992 9.78418 14.5C9.78421 17.5008 12.3646 19.8818 15.5029 19.8818C18.6411 19.8817 21.2207 17.5007 21.2207 14.5C21.2207 11.4993 18.6412 9.11833 15.5029 9.11816Z" fill="#F89A21" stroke="#F89A21"/>
<path d="M15.502 11.5442C17.2855 11.5444 18.6953 12.9103 18.6953 14.5002C18.6952 16.0879 17.2877 17.4434 15.502 17.4436C13.7183 17.4436 12.3204 16.0902 12.3203 14.5002C12.3203 12.897 13.7194 11.5442 15.502 11.5442Z" stroke="#F89A21"/>
</svg>
