<svg width="16" height="16" viewBox="0 0 16 16" fill="none" xmlns="http://www.w3.org/2000/svg">
<path d="M10.7959 1.33337H5.20927C2.7826 1.33337 1.33594 2.78004 1.33594 5.20671V10.7867C1.33594 13.22 2.7826 14.6667 5.20927 14.6667H10.7893C13.2159 14.6667 14.6626 13.22 14.6626 10.7934V5.20671C14.6693 2.78004 13.2226 1.33337 10.7959 1.33337ZM10.5026 10.5H5.5026C5.22927 10.5 5.0026 10.2734 5.0026 10C5.0026 9.72671 5.22927 9.50004 5.5026 9.50004H10.5026C10.7759 9.50004 11.0026 9.72671 11.0026 10C11.0026 10.2734 10.7759 10.5 10.5026 10.5ZM10.5026 6.50004H5.5026C5.22927 6.50004 5.0026 6.27337 5.0026 6.00004C5.0026 5.72671 5.22927 5.50004 5.5026 5.50004H10.5026C10.7759 5.50004 11.0026 5.72671 11.0026 6.00004C11.0026 6.27337 10.7759 6.50004 10.5026 6.50004Z" fill="#F89A21"/>
</svg>
