<svg width="72" height="72" viewBox="0 0 72 72" fill="none" xmlns="http://www.w3.org/2000/svg">
<g filter="url(#filter0_d_71_17950)">
<rect x="7" y="3" width="58" height="58" rx="29" fill="#897CB5" shape-rendering="crispEdges"/>
<path d="M45.8783 33.3337C45.5849 33.3337 45.2783 33.2403 44.9849 33.1737C44.3914 33.0409 43.8078 32.8672 43.2383 32.6537C42.6197 32.4286 41.9398 32.4403 41.3294 32.6865C40.7189 32.9326 40.2211 33.3958 39.9316 33.987L39.6383 34.6003C38.3434 33.8659 37.1471 32.9699 36.0783 31.9337C35.0421 30.8648 34.146 29.6686 33.4116 28.3737L34.0249 28.0937C34.6161 27.8042 35.0793 27.3064 35.3255 26.6959C35.5716 26.0855 35.5833 25.4055 35.3583 24.787C35.1465 24.2124 34.9728 23.6244 34.8383 23.027C34.7716 22.7337 34.7183 22.427 34.6783 22.1337C34.5164 21.1945 34.0244 20.344 33.2911 19.7353C32.5578 19.1266 31.6312 18.7998 30.6783 18.8137H26.6649C26.1013 18.8129 25.5438 18.9313 25.0291 19.1611C24.5144 19.3909 24.0541 19.7269 23.6783 20.147C23.2947 20.5785 23.0091 21.088 22.8411 21.6404C22.6731 22.1928 22.6266 22.775 22.7049 23.347C23.4297 28.8965 25.9652 34.0519 29.9183 38.0137C33.8801 41.9667 39.0354 44.5022 44.5849 45.227C44.758 45.2402 44.9319 45.2402 45.1049 45.227C46.0882 45.2284 47.0375 44.8677 47.7716 44.2137C48.1917 43.8379 48.5277 43.3775 48.7575 42.8628C48.9873 42.3481 49.1057 41.7907 49.1049 41.227V37.227C49.0978 36.3057 48.7728 35.4151 48.1849 34.7058C47.597 33.9964 46.7822 33.5118 45.8783 33.3337ZM46.5316 41.3337C46.5312 41.5197 46.4918 41.7036 46.416 41.8736C46.3402 42.0435 46.2297 42.1957 46.0916 42.3203C45.9455 42.4535 45.7716 42.5524 45.5825 42.6101C45.3934 42.6677 45.1938 42.6826 44.9983 42.6537C40.0226 42.0038 35.3986 39.7363 31.8383 36.2003C28.2749 32.6369 25.9876 27.9968 25.3316 23.0003C25.3026 22.8048 25.3175 22.6052 25.3752 22.4161C25.4328 22.227 25.5318 22.0531 25.6649 21.907C25.7911 21.7672 25.9454 21.6557 26.1178 21.5799C26.2902 21.504 26.4766 21.4656 26.6649 21.467H30.6649C30.9732 21.4595 31.2745 21.559 31.5176 21.7486C31.7607 21.9382 31.9305 22.2062 31.9983 22.507C31.9983 22.867 32.1183 23.2403 32.1983 23.6003C32.3524 24.2988 32.5574 24.9851 32.8116 25.6537L30.9449 26.5337C30.6241 26.6809 30.3748 26.9495 30.2516 27.2803C30.1183 27.6049 30.1183 27.969 30.2516 28.2937C32.1705 32.404 35.4746 35.7081 39.5849 37.627C39.9096 37.7603 40.2737 37.7603 40.5983 37.627C40.9291 37.5038 41.1977 37.2545 41.3449 36.9337L42.1849 35.067C42.8728 35.3178 43.5766 35.5227 44.2916 35.6803C44.6383 35.7603 45.0116 35.827 45.3716 35.8803C45.6724 35.9481 45.9404 36.1179 46.13 36.361C46.3196 36.6041 46.4191 36.9054 46.4116 37.2137L46.5316 41.3337ZM38.6649 18.667C38.3583 18.667 38.0383 18.667 37.7316 18.667C37.378 18.6971 37.0508 18.8664 36.822 19.1377C36.5932 19.409 36.4816 19.76 36.5116 20.1137C36.5417 20.4673 36.711 20.7945 36.9823 21.0233C37.2536 21.2521 37.6047 21.3637 37.9583 21.3337H38.6649C40.7867 21.3337 42.8215 22.1765 44.3218 23.6768C45.8221 25.1771 46.6649 27.2119 46.6649 29.3337C46.6649 29.5737 46.6649 29.8003 46.6649 30.0403C46.6354 30.3921 46.7465 30.7412 46.974 31.0111C47.2014 31.2811 47.5266 31.4498 47.8783 31.4803H47.9849C48.3187 31.4817 48.6409 31.3578 48.8877 31.1331C49.1346 30.9085 49.2882 30.5994 49.3183 30.267C49.3183 29.9603 49.3183 29.6403 49.3183 29.3337C49.3183 26.507 48.1963 23.7959 46.1988 21.7959C44.2013 19.7959 41.4916 18.6705 38.6649 18.667ZM41.3316 29.3337C41.3316 29.6873 41.4721 30.0264 41.7221 30.2765C41.9722 30.5265 42.3113 30.667 42.6649 30.667C43.0186 30.667 43.3577 30.5265 43.6078 30.2765C43.8578 30.0264 43.9983 29.6873 43.9983 29.3337C43.9983 27.9192 43.4364 26.5626 42.4362 25.5624C41.436 24.5622 40.0794 24.0003 38.6649 24.0003C38.3113 24.0003 37.9722 24.1408 37.7221 24.3909C37.4721 24.6409 37.3316 24.98 37.3316 25.3337C37.3316 25.6873 37.4721 26.0264 37.7221 26.2765C37.9722 26.5265 38.3113 26.667 38.6649 26.667C39.3722 26.667 40.0505 26.9479 40.5506 27.448C41.0507 27.9481 41.3316 28.6264 41.3316 29.3337Z" fill="white"/>
</g>
<defs>
<filter id="filter0_d_71_17950" x="0" y="0" width="72" height="72" filterUnits="userSpaceOnUse" color-interpolation-filters="sRGB">
<feFlood flood-opacity="0" result="BackgroundImageFix"/>
<feColorMatrix in="SourceAlpha" type="matrix" values="0 0 0 0 0 0 0 0 0 0 0 0 0 0 0 0 0 0 127 0" result="hardAlpha"/>
<feOffset dy="4"/>
<feGaussianBlur stdDeviation="3.5"/>
<feComposite in2="hardAlpha" operator="out"/>
<feColorMatrix type="matrix" values="0 0 0 0 0.698039 0 0 0 0 0.745098 0 0 0 0 0.803922 0 0 0 0.29 0"/>
<feBlend mode="normal" in2="BackgroundImageFix" result="effect1_dropShadow_71_17950"/>
<feBlend mode="normal" in="SourceGraphic" in2="effect1_dropShadow_71_17950" result="shape"/>
</filter>
</defs>
</svg>
