<svg width="113" height="40" viewBox="0 0 113 40" fill="none" xmlns="http://www.w3.org/2000/svg">
<g clip-path="url(#clip0_625_20034)">
<path d="M61.0133 30.1181C60.5981 30.253 60.1754 30.377 59.7418 30.49C59.6603 32.0541 59.2376 33.2739 58.4736 34.1547C57.614 35.143 56.3817 35.6355 54.7744 35.6355C53.1672 35.6355 51.9425 35.1485 51.0948 34.1711C50.4482 33.4253 50.0472 32.4172 49.8951 31.1503C49.6082 31.1119 49.33 31.0648 49.0605 31.0154C49.0279 31.0099 48.9953 31.0044 48.9648 30.9989C48.2857 30.8673 47.6477 30.7039 47.0609 30.5086C46.6458 30.3737 46.2568 30.2223 45.896 30.0567C45.4863 29.8724 45.1135 29.6684 44.7745 29.4479V29.6739C44.7745 32.9371 45.6286 35.4205 47.3337 37.1185C49.0387 38.8176 51.5186 39.6677 54.7755 39.6677C58.0324 39.6677 60.5199 38.811 62.2358 37.102C63.9517 35.392 64.8113 32.9141 64.8113 29.6739V28.396C63.7724 29.0399 62.5249 29.6103 61.1372 30.0754C61.0959 30.0918 61.0524 30.1028 61.0144 30.117L61.0133 30.1181ZM64.118 16.4147C63.654 15.9463 63.0378 15.7148 62.2684 15.7148C61.499 15.7148 60.8883 15.9463 60.4351 16.4147C59.9852 16.8797 59.7581 17.5028 59.7581 18.2783V29.2527C59.8885 29.2165 60.0168 29.1781 60.145 29.1375C60.6221 28.9861 61.0806 28.8238 61.5197 28.645C61.6229 28.6066 61.724 28.5649 61.825 28.5211C62.9813 28.034 63.9941 27.4582 64.8092 26.8275V18.2783C64.8092 17.5017 64.5777 16.8797 64.1158 16.4147H64.118ZM46.5502 29.0223C47.1663 29.2977 47.8651 29.5313 48.6258 29.7167C48.6508 29.7222 48.678 29.7309 48.7019 29.7364C48.9659 29.8 49.2365 29.8549 49.5126 29.9042C49.6158 29.924 49.7201 29.9426 49.8234 29.9591V18.2794C49.8234 17.5028 49.5995 16.8808 49.1463 16.4158C48.6964 15.9474 48.0857 15.7159 47.3163 15.7159C46.5469 15.7159 45.9307 15.9474 45.4667 16.4158C45.0059 16.8808 44.7734 17.5039 44.7734 18.2794V27.9222C45.0103 28.1339 45.2809 28.3291 45.5786 28.5145C45.8764 28.6966 46.2002 28.8666 46.5502 29.0234V29.0223Z" fill="white"/>
<path d="M45.5 11.6426C49.0623 13.5183 52.3224 16.3691 54.7871 19.5534C57.2518 16.3702 60.5119 13.5194 64.0742 11.6426C60.6477 12.134 57.4593 13.4876 54.7871 15.5267C52.1138 13.4865 48.9264 12.1329 45.5 11.6426Z" fill="url(#paint0_linear_625_20034)"/>
<path opacity="0.7" d="M54.7891 19.5514C57.2538 16.3682 60.5139 13.5174 64.0762 11.6406C60.8063 13.0436 57.6852 14.9708 54.7891 17.6911V19.5514Z" fill="url(#paint1_radial_625_20034)"/>
<path opacity="0.7" d="M54.7871 19.5514V17.6911C51.891 14.9708 48.7699 13.0436 45.5 11.6406C49.0623 13.5163 52.3224 16.3671 54.7871 19.5514Z" fill="url(#paint2_radial_625_20034)"/>
<path d="M54.7936 6.25C52.9484 6.25 51.4531 7.75932 51.4531 9.62185C51.4531 11.4844 52.9484 12.9937 54.7936 12.9937C56.6389 12.9937 58.1342 11.4844 58.1342 9.62185C58.1342 7.75932 56.6389 6.25 54.7936 6.25Z" fill="url(#paint3_linear_625_20034)"/>
<path d="M54.7966 6.90234C53.3078 6.90234 52.1016 8.11989 52.1016 9.62264C52.1016 11.1254 53.3078 8.75061 54.7966 8.75061C56.2854 8.75061 57.4917 11.1254 57.4917 9.62264C57.4917 8.11989 56.2854 6.90234 54.7966 6.90234Z" fill="url(#paint4_linear_625_20034)"/>
<path d="M61.5688 3.51773L55.5691 0.220475C55.0344 -0.0734917 54.4378 -0.0734917 53.9031 0.220475L47.9034 3.51773C47.4861 3.74698 47.5057 4.36124 47.9361 4.56417L50.6778 5.85082L51.3951 3.82925V7.03437C52.1937 5.98684 53.4206 5.37258 54.7356 5.37258C56.0505 5.37258 57.2785 5.98684 58.0761 7.03437V3.82925L58.7934 5.85082L61.5351 4.56417C61.9655 4.36234 61.985 3.74808 61.5677 3.51773H61.5688Z" fill="white"/>
<path d="M67.8916 23.964C67.9219 23.8192 67.9405 23.6766 67.9492 23.5307C68.0383 22.0664 67.0483 20.8071 65.328 19.8945C65.8801 20.3146 66.2995 20.7896 66.5603 21.3106C66.794 21.7669 66.9016 22.2583 66.8701 22.7783C66.8657 22.832 66.8614 22.8869 66.8559 22.9417C66.8451 23.0305 66.8309 23.1183 66.8113 23.206C66.7157 23.6777 66.5081 24.1417 66.2016 24.5914C66.0299 24.8481 65.8245 25.1004 65.5898 25.3461C65.3975 25.5468 65.1834 25.7454 64.9541 25.9384C64.0924 26.6602 62.9763 27.3183 61.6787 27.8656C61.5777 27.9084 61.4766 27.949 61.3723 27.9896C60.9343 28.1673 60.4746 28.3307 59.9998 28.481C59.1749 28.7432 58.3002 28.9625 57.3874 29.1337C56.9755 29.2126 56.5549 29.2806 56.1278 29.3377C55.6822 29.3991 55.2301 29.4452 54.7737 29.4814C53.4794 29.5823 52.2438 29.5768 51.0919 29.477C50.9604 29.4649 50.8289 29.4528 50.6996 29.4386C50.2399 29.3892 49.7944 29.3256 49.3662 29.2477C49.0891 29.1984 48.8196 29.1424 48.5555 29.0799C48.5295 29.0733 48.5024 29.0667 48.4774 29.0602C47.7156 28.8748 47.0189 28.6411 46.4038 28.3658C46.0539 28.209 45.7279 28.039 45.4301 27.8547C44.1011 27.0331 43.336 25.956 43.3632 24.7231C43.3632 24.6869 43.3632 24.6507 43.3665 24.6134C43.3784 24.428 43.4068 24.2415 43.4513 24.0583C43.4568 24.0342 43.4632 24.0123 43.4697 23.9881C43.4882 23.9146 43.5099 23.8433 43.536 23.7699C43.6697 23.3805 43.8795 22.9965 44.1566 22.6225C43.4079 23.3454 42.9014 24.1198 42.6981 24.9128C42.6492 25.1103 42.6166 25.3088 42.6058 25.5095C42.6036 25.5424 42.6036 25.5775 42.6025 25.6115C42.5873 26.2006 42.7482 26.7545 43.059 27.2645C43.573 28.1103 44.5032 28.8375 45.7475 29.4002C46.1093 29.5658 46.4984 29.7183 46.9124 29.8532C47.5003 30.0474 48.1382 30.2108 48.8163 30.3413C48.8468 30.3479 48.8795 30.3534 48.9121 30.3589C49.2653 30.4247 49.6292 30.4817 50.0041 30.5289C50.5931 30.6046 51.2094 30.6561 51.844 30.6825C51.9484 30.688 52.0526 30.6901 52.158 30.6934H52.1603C53.0427 30.7198 53.9641 30.6989 54.9117 30.6243C55.3052 30.5947 55.6931 30.5552 56.0778 30.507C56.1821 30.4949 56.2843 30.4828 56.3875 30.4686C56.3995 30.4664 56.4137 30.4653 56.4256 30.4631C57.4537 30.3238 58.4468 30.1285 59.3912 29.8883C59.8976 29.7578 60.3888 29.6152 60.8637 29.4605C60.9039 29.4474 60.9463 29.4342 60.9865 29.4188C62.5351 28.9011 63.9021 28.2518 65.0073 27.5179C65.1801 27.4017 65.3486 27.2854 65.5083 27.1647C66.2549 26.6097 66.8527 26.0108 67.2711 25.3878C67.5819 24.9227 67.7927 24.4444 67.8905 23.9618" fill="url(#paint5_radial_625_20034)"/>
<path d="M0.908286 38.7377C0.4899 38.3165 0.28125 37.7165 0.28125 36.9388V18.3146C0.28125 17.5369 0.4899 16.938 0.908286 16.5157C1.32667 16.0945 1.92001 15.8828 2.6905 15.8828H14.3749C16.0028 15.8828 16.8178 16.5497 16.8178 17.8814C16.8178 19.213 16.0039 19.9139 14.3749 19.9139H5.29753V25.4104H13.7142C15.3421 25.4104 16.1571 26.0883 16.1571 27.443C16.1571 28.7976 15.3431 29.4415 13.7142 29.4415H5.29753V35.3384H14.3738C16.0017 35.3384 16.8167 36.0163 16.8167 37.3709C16.8167 38.7256 16.0028 39.3695 14.3738 39.3695H2.6905C1.92001 39.3695 1.32558 39.1589 0.908286 38.7366V38.7377Z" fill="white"/>
<path d="M20.4865 38.7377C20.0681 38.3165 19.8594 37.7165 19.8594 36.9388V18.3146C19.8594 17.5369 20.0681 16.938 20.4865 16.5157C20.9048 16.0945 21.4982 15.8828 22.2687 15.8828H28.9031C31.4329 15.8828 33.6118 16.349 35.4386 17.2824C37.2643 18.2148 38.6618 19.5596 39.63 21.3135C40.5983 23.0686 41.0819 25.1669 41.0819 27.6108C41.0819 30.0547 40.6027 32.1585 39.6464 33.9245C38.689 35.6905 37.2969 37.0397 35.4712 37.972C33.6444 38.9044 31.4547 39.3717 28.9031 39.3717H22.2687C21.4982 39.3717 20.9038 39.1611 20.4865 38.7388V38.7377ZM28.5401 35.1728C33.4912 35.1728 35.9667 32.6521 35.9667 27.6097C35.9667 22.5673 33.4912 20.0806 28.5401 20.0806H25.0083V35.1728H28.5401Z" fill="white"/>
<path d="M88.4443 37.1717C88.4443 37.8156 88.1966 38.3772 87.7021 38.8543C87.2066 39.3326 86.6404 39.5706 86.0025 39.5706C85.3646 39.5706 84.781 39.2931 84.3192 38.7381L78.114 31.0752L71.8426 38.7381C71.3579 39.2931 70.7972 39.5706 70.1592 39.5706C69.5213 39.5706 68.9878 39.3326 68.4922 38.8543C67.9967 38.3772 67.75 37.8167 67.75 37.1717C67.75 36.6167 67.9478 36.1055 68.3444 35.6394L75.1103 27.5103L68.5748 19.6149C68.1564 19.1267 67.9478 18.6156 67.9478 18.0825C67.9478 17.4386 68.1956 16.8781 68.69 16.3999C69.1856 15.9227 69.7409 15.6836 70.357 15.6836C71.0167 15.6836 71.5894 15.9721 72.073 16.5501L78.1129 23.9125L84.0866 16.5501C84.5702 15.9732 85.1429 15.6836 85.8025 15.6836C86.4187 15.6836 86.974 15.9227 87.4696 16.3999C87.9651 16.8781 88.2118 17.4386 88.2118 18.0825C88.2118 18.6375 88.014 19.1487 87.6173 19.6149L81.0818 27.5103L87.8151 35.6394C88.2324 36.1286 88.4422 36.6386 88.4422 37.1717H88.4443Z" fill="white"/>
<path d="M113.005 37.2726C113.005 37.8946 112.757 38.4222 112.263 38.8554C111.767 39.2887 111.201 39.5048 110.563 39.5048C110.145 39.5048 109.749 39.3885 109.374 39.1549C108.999 38.9213 108.715 38.5724 108.516 38.1052L106.766 34.1739H95.5761L93.8265 38.1052C93.6287 38.5713 93.3484 38.9213 92.9854 39.1549C92.6224 39.3885 92.2203 39.5048 91.7802 39.5048C91.1412 39.5048 90.5696 39.2887 90.0643 38.8554C89.5579 38.4222 89.3047 37.8946 89.3047 37.2726C89.3047 36.9622 89.3927 36.6068 89.5688 36.2064L98.4809 17.3169C98.7232 16.7838 99.0862 16.379 99.5698 16.1004C100.053 15.8229 100.571 15.6836 101.121 15.6836C101.671 15.6836 102.22 15.8284 102.705 16.1169C103.189 16.4053 103.564 16.8057 103.828 17.3158L112.74 36.2053C112.916 36.6057 113.004 36.9611 113.004 37.2715L113.005 37.2726ZM105.018 30.2437L101.189 21.5816L97.3268 30.2437H105.018Z" fill="white"/>
</g>
<defs>
<linearGradient id="paint0_linear_625_20034" x1="59.4306" y1="6.95554" x2="50.057" y2="16.2422" gradientUnits="userSpaceOnUse">
<stop stop-color="#FBC27A"/>
<stop offset="1" stop-color="#F89A21"/>
</linearGradient>
<radialGradient id="paint1_radial_625_20034" cx="0" cy="0" r="1" gradientUnits="userSpaceOnUse" gradientTransform="translate(48.3025 19.0425) scale(20.2629 20.4527)">
<stop stop-color="white"/>
<stop offset="0.5" stop-color="#FBC27A"/>
<stop offset="1" stop-color="#F89A21"/>
</radialGradient>
<radialGradient id="paint2_radial_625_20034" cx="0" cy="0" r="1" gradientUnits="userSpaceOnUse" gradientTransform="translate(53.0744 12.4348) scale(9.61961 9.70969)">
<stop stop-color="white"/>
<stop offset="0.5" stop-color="#FBC27A"/>
<stop offset="1" stop-color="#F89A21"/>
</radialGradient>
<linearGradient id="paint3_linear_625_20034" x1="57.1551" y1="7.2383" x2="52.3871" y2="11.962" gradientUnits="userSpaceOnUse">
<stop stop-color="#FBC27A"/>
<stop offset="1" stop-color="#F89A21"/>
</linearGradient>
<linearGradient id="paint4_linear_625_20034" x1="54.7966" y1="2.66176" x2="54.7966" y2="10.5802" gradientUnits="userSpaceOnUse">
<stop stop-color="#FEEBD3"/>
<stop offset="1" stop-color="white" stop-opacity="0"/>
</linearGradient>
<radialGradient id="paint5_radial_625_20034" cx="0" cy="0" r="1" gradientUnits="userSpaceOnUse" gradientTransform="translate(55.2791 25.3011) scale(9.73046 9.82157)">
<stop stop-color="white"/>
<stop offset="0.5" stop-color="#FBC27A"/>
<stop offset="1" stop-color="#F89A21"/>
</radialGradient>
<clipPath id="clip0_625_20034">
<rect width="113" height="40" fill="white"/>
</clipPath>
</defs>
</svg>
